<svg xmlns="http://www.w3.org/2000/svg" width="1440" height="900"><path d="M747,402L685,484L772,469Z" fill="#fe9828" stroke="#fe9828" stroke-width="1.51"/><path d="M747,402L674,377L685,484Z" fill="#fe9f2f" stroke="#fe9f2f" stroke-width="1.51"/><path d="M772,469L832,463L747,402Z" fill="#fc9427" stroke="#fc9427" stroke-width="1.51"/><path d="M756,606L832,463L772,469Z" fill="#f88b22" stroke="#f88b22" stroke-width="1.51"/><path d="M674,377L609,381L685,484Z" fill="#ffa534" stroke="#ffa534" stroke-width="1.51"/><path d="M832,463L865,412L747,402Z" fill="#fa9428" stroke="#fa9428" stroke-width="1.51"/><path d="M747,402L674,301L674,377Z" fill="#ffa837" stroke="#ffa837" stroke-width="1.51"/><path d="M786,297L674,301L747,402Z" fill="#fea838" stroke="#fea838" stroke-width="1.51"/><path d="M674,377L674,301L609,381Z" fill="#ffae3c" stroke="#ffae3c" stroke-width="1.51"/><path d="M685,484L756,606L772,469Z" fill="#fa8e23" stroke="#fa8e23" stroke-width="1.51"/><path d="M832,463L907,514L865,412Z" fill="#f88a21" stroke="#f88a21" stroke-width="1.51"/><path d="M683,612L756,606L685,484Z" fill="#f78a22" stroke="#f78a22" stroke-width="1.51"/><path d="M865,412L786,297L747,402Z" fill="#fc9d30" stroke="#fc9d30" stroke-width="1.51"/><path d="M624,599L683,612L685,484Z" fill="#f78f26" stroke="#f78f26" stroke-width="1.51"/><path d="M609,381L556,465L685,484Z" fill="#ffa534" stroke="#ffa534" stroke-width="1.51"/><path d="M556,465L624,599L685,484Z" fill="#fb9a2e" stroke="#fb9a2e" stroke-width="1.51"/><path d="M683,612L703,631L756,606Z" fill="#f4831e" stroke="#f4831e" stroke-width="1.51"/><path d="M574,687L703,631L683,612Z" fill="#f28723" stroke="#f28723" stroke-width="1.51"/><path d="M674,301L599,305L609,381Z" fill="#ffb441" stroke="#ffb441" stroke-width="1.51"/><path d="M505,379L497,484L556,465Z" fill="#feae3c" stroke="#feae3c" stroke-width="1.51"/><path d="M865,412L850,305L786,297Z" fill="#fa9f33" stroke="#fa9f33" stroke-width="1.51"/><path d="M674,301L661,267L599,305Z" fill="#ffb745" stroke="#ffb745" stroke-width="1.51"/><path d="M751,207L661,267L674,301Z" fill="#ffb548" stroke="#ffb548" stroke-width="1.51"/><path d="M751,207L674,301L786,297Z" fill="#ffb043" stroke="#ffb043" stroke-width="1.51"/><path d="M879,606L907,514L832,463Z" fill="#f3801c" stroke="#f3801c" stroke-width="1.51"/><path d="M865,412L956,334L850,305Z" fill="#f8982f" stroke="#f8982f" stroke-width="1.51"/><path d="M756,606L879,606L832,463Z" fill="#f4811d" stroke="#f4811d" stroke-width="1.51"/><path d="M860,675L879,606L756,606Z" fill="#ee7718" stroke="#ee7718" stroke-width="1.51"/><path d="M907,514L945,421L865,412Z" fill="#f78820" stroke="#f78820" stroke-width="1.51"/><path d="M1008,465L945,421L907,514Z" fill="#f3811d" stroke="#f3811d" stroke-width="1.51"/><path d="M556,465L494,601L624,599Z" fill="#f99c31" stroke="#f99c31" stroke-width="1.51"/><path d="M505,379L556,465L609,381Z" fill="#feb03d" stroke="#feb03d" stroke-width="1.51"/><path d="M505,347L505,379L609,381Z" fill="#ffb744" stroke="#ffb744" stroke-width="1.51"/><path d="M703,631L773,680L756,606Z" fill="#f07e1b" stroke="#f07e1b" stroke-width="1.51"/><path d="M729,767L773,680L703,631Z" fill="#eb7819" stroke="#eb7819" stroke-width="1.51"/><path d="M505,379L451,486L497,484Z" fill="#ffb040" stroke="#ffb040" stroke-width="1.51"/><path d="M599,305L505,347L609,381Z" fill="#ffb744" stroke="#ffb744" stroke-width="1.51"/><path d="M558,205L505,347L599,305Z" fill="#fec14e" stroke="#fec14e" stroke-width="1.51"/><path d="M849,233L751,207L786,297Z" fill="#fdae46" stroke="#fdae46" stroke-width="1.51"/><path d="M661,267L558,205L599,305Z" fill="#ffbe50" stroke="#ffbe50" stroke-width="1.51"/><path d="M850,305L849,233L786,297Z" fill="#fba73d" stroke="#fba73d" stroke-width="1.51"/><path d="M924,203L849,233L850,305Z" fill="#faa642" stroke="#faa642" stroke-width="1.51"/><path d="M879,606L926,600L907,514Z" fill="#ef7718" stroke="#ef7718" stroke-width="1.51"/><path d="M901,650L926,600L879,606Z" fill="#ec7215" stroke="#ec7215" stroke-width="1.51"/><path d="M945,421L956,334L865,412Z" fill="#f79028" stroke="#f79028" stroke-width="1.51"/><path d="M1055,401L956,334L945,421Z" fill="#f38b26" stroke="#f38b26" stroke-width="1.51"/><path d="M773,680L860,675L756,606Z" fill="#ed7818" stroke="#ed7818" stroke-width="1.51"/><path d="M860,675L901,650L879,606Z" fill="#ea7115" stroke="#ea7115" stroke-width="1.51"/><path d="M497,484L494,601L556,465Z" fill="#fba537" stroke="#fba537" stroke-width="1.51"/><path d="M382,423L451,486L505,379Z" fill="#ffb649" stroke="#ffb649" stroke-width="1.51"/><path d="M446,567L494,601L497,484Z" fill="#f9a43a" stroke="#f9a43a" stroke-width="1.51"/><path d="M624,599L574,687L683,612Z" fill="#f38b26" stroke="#f38b26" stroke-width="1.51"/><path d="M494,601L574,687L624,599Z" fill="#f3912c" stroke="#f3912c" stroke-width="1.51"/><path d="M1019,545L907,514L926,600Z" fill="#ee7617" stroke="#ee7617" stroke-width="1.51"/><path d="M1019,545L1008,465L907,514Z" fill="#ef7a19" stroke="#ef7a19" stroke-width="1.51"/><path d="M751,207L743,160L661,267Z" fill="#ffb851" stroke="#ffb851" stroke-width="1.51"/><path d="M835,176L743,160L751,207Z" fill="#feb556" stroke="#feb556" stroke-width="1.51"/><path d="M849,233L835,176L751,207Z" fill="#fdb04f" stroke="#fdb04f" stroke-width="1.51"/><path d="M924,203L835,176L849,233Z" fill="#fbab4c" stroke="#fbab4c" stroke-width="1.51"/><path d="M621,130L558,205L661,267Z" fill="#ffc45d" stroke="#ffc45d" stroke-width="1.51"/><path d="M505,347L431,321L505,379Z" fill="#ffbf4d" stroke="#ffbf4d" stroke-width="1.51"/><path d="M494,601L516,685L574,687Z" fill="#f0922e" stroke="#f0922e" stroke-width="1.51"/><path d="M451,486L446,567L497,484Z" fill="#fcaa40" stroke="#fcaa40" stroke-width="1.51"/><path d="M1016,649L1019,545L926,600Z" fill="#e86d12" stroke="#e86d12" stroke-width="1.51"/><path d="M405,697L516,685L494,601Z" fill="#f19735" stroke="#f19735" stroke-width="1.51"/><path d="M558,205L529,199L505,347Z" fill="#ffc658" stroke="#ffc658" stroke-width="1.51"/><path d="M621,130L529,199L558,205Z" fill="#ffca65" stroke="#ffca65" stroke-width="1.51"/><path d="M956,334L924,203L850,305Z" fill="#f89f38" stroke="#f89f38" stroke-width="1.51"/><path d="M1007,292L924,203L956,334Z" fill="#f59c37" stroke="#f59c37" stroke-width="1.51"/><path d="M773,680L873,754L860,675Z" fill="#e66e13" stroke="#e66e13" stroke-width="1.51"/><path d="M860,675L943,733L901,650Z" fill="#e56a11" stroke="#e56a11" stroke-width="1.51"/><path d="M665,767L729,767L703,631Z" fill="#e8791a" stroke="#e8791a" stroke-width="1.51"/><path d="M665,767L703,631L574,687Z" fill="#ec8220" stroke="#ec8220" stroke-width="1.51"/><path d="M529,199L431,321L505,347Z" fill="#fec654" stroke="#fec654" stroke-width="1.51"/><path d="M451,486L343,463L446,567Z" fill="#fdae48" stroke="#fdae48" stroke-width="1.51"/><path d="M602,753L665,767L574,687Z" fill="#e88022" stroke="#e88022" stroke-width="1.51"/><path d="M1055,401L945,421L1008,465Z" fill="#f0821f" stroke="#f0821f" stroke-width="1.51"/><path d="M1055,401L1007,292L956,334Z" fill="#f28f2a" stroke="#f28f2a" stroke-width="1.51"/><path d="M489,756L602,753L574,687Z" fill="#e88727" stroke="#e88727" stroke-width="1.51"/><path d="M1103,431L1055,401L1008,465Z" fill="#ec7e1d" stroke="#ec7e1d" stroke-width="1.51"/><path d="M679,116L621,130L661,267Z" fill="#ffc25f" stroke="#ffc25f" stroke-width="1.51"/><path d="M679,116L661,267L743,160Z" fill="#ffbd5a" stroke="#ffbd5a" stroke-width="1.51"/><path d="M679,116L743,160L734,46Z" fill="#ffc165" stroke="#ffc165" stroke-width="1.51"/><path d="M708,50L679,116L734,46Z" fill="#ffc56c" stroke="#ffc56c" stroke-width="1.51"/><path d="M729,767L873,754L773,680Z" fill="#e46f14" stroke="#e46f14" stroke-width="1.51"/><path d="M901,650L1016,649L926,600Z" fill="#e76c12" stroke="#e76c12" stroke-width="1.51"/><path d="M431,321L382,423L505,379Z" fill="#ffbe51" stroke="#ffbe51" stroke-width="1.51"/><path d="M943,733L1016,649L901,650Z" fill="#e2660f" stroke="#e2660f" stroke-width="1.51"/><path d="M1019,545L1085,505L1008,465Z" fill="#eb7517" stroke="#eb7517" stroke-width="1.51"/><path d="M873,754L943,733L860,675Z" fill="#e2670f" stroke="#e2670f" stroke-width="1.51"/><path d="M602,753L659,805L665,767Z" fill="#e27a1d" stroke="#e27a1d" stroke-width="1.51"/><path d="M665,767L659,805L729,767Z" fill="#e1751a" stroke="#e1751a" stroke-width="1.51"/><path d="M729,767L862,808L873,754Z" fill="#dd6710" stroke="#dd6710" stroke-width="1.51"/><path d="M593,871L659,805L602,753Z" fill="#dc7920" stroke="#dc7920" stroke-width="1.51"/><path d="M1142,608L1085,505L1019,545Z" fill="#e46b11" stroke="#e46b11" stroke-width="1.51"/><path d="M924,203L952,154L835,176Z" fill="#faab50" stroke="#faab50" stroke-width="1.51"/><path d="M1030,154L952,154L924,203Z" fill="#f6a64f" stroke="#f6a64f" stroke-width="1.51"/><path d="M1030,154L924,203L1007,292Z" fill="#f4a045" stroke="#f4a045" stroke-width="1.51"/><path d="M659,805L743,826L729,767Z" fill="#dd7017" stroke="#dd7017" stroke-width="1.51"/><path d="M873,754L914,834L943,733Z" fill="#d95f0c" stroke="#d95f0c" stroke-width="1.51"/><path d="M1102,244L1055,266L1139,298Z" fill="#ec9134" stroke="#ec9134" stroke-width="1.51"/><path d="M1055,401L1055,266L1007,292Z" fill="#ef902c" stroke="#ef902c" stroke-width="1.51"/><path d="M1085,505L1103,431L1008,465Z" fill="#eb7819" stroke="#eb7819" stroke-width="1.51"/><path d="M382,423L343,463L451,486Z" fill="#ffb64f" stroke="#ffb64f" stroke-width="1.51"/><path d="M426,747L489,756L516,685Z" fill="#ea8f31" stroke="#ea8f31" stroke-width="1.51"/><path d="M331,406L343,463L382,423Z" fill="#ffbd58" stroke="#ffbd58" stroke-width="1.51"/><path d="M743,826L862,808L729,767Z" fill="#db6913" stroke="#db6913" stroke-width="1.51"/><path d="M516,685L489,756L574,687Z" fill="#eb8c2b" stroke="#eb8c2b" stroke-width="1.51"/><path d="M405,697L494,601L446,567Z" fill="#f69d3b" stroke="#f69d3b" stroke-width="1.51"/><path d="M431,321L331,406L382,423Z" fill="#ffc158" stroke="#ffc158" stroke-width="1.51"/><path d="M529,199L405,221L431,321Z" fill="#ffcd63" stroke="#ffcd63" stroke-width="1.51"/><path d="M490,127L405,221L529,199Z" fill="#ffd26e" stroke="#ffd26e" stroke-width="1.51"/><path d="M306,341L331,406L431,321Z" fill="#ffc760" stroke="#ffc760" stroke-width="1.51"/><path d="M621,130L490,127L529,199Z" fill="#ffcf6c" stroke="#ffcf6c" stroke-width="1.51"/><path d="M521,73L490,127L621,130Z" fill="#ffd273" stroke="#ffd273" stroke-width="1.51"/><path d="M734,46L743,160L859,45Z" fill="#ffbd66" stroke="#ffbd66" stroke-width="1.51"/><path d="M679,116L586,52L621,130Z" fill="#ffca6e" stroke="#ffca6e" stroke-width="1.51"/><path d="M859,45L743,160L835,176Z" fill="#feb85e" stroke="#feb85e" stroke-width="1.51"/><path d="M317,586L405,697L446,567Z" fill="#f7a145" stroke="#f7a145" stroke-width="1.51"/><path d="M952,154L916,88L835,176Z" fill="#fbae58" stroke="#fbae58" stroke-width="1.51"/><path d="M1009,34L916,88L952,154Z" fill="#f9ac5d" stroke="#f9ac5d" stroke-width="1.51"/><path d="M661,-47L586,52L708,50Z" fill="#ffcd78" stroke="#ffcd78" stroke-width="1.51"/><path d="M708,50L586,52L679,116Z" fill="#ffca6f" stroke="#ffca6f" stroke-width="1.51"/><path d="M500,850L593,871L602,753Z" fill="#da7d24" stroke="#da7d24" stroke-width="1.51"/><path d="M659,805L675,933L743,826Z" fill="#d36e18" stroke="#d36e18" stroke-width="1.51"/><path d="M405,697L426,747L516,685Z" fill="#ec9336" stroke="#ec9336" stroke-width="1.51"/><path d="M1055,266L1030,154L1007,292Z" fill="#f19a3e" stroke="#f19a3e" stroke-width="1.51"/><path d="M1102,244L1030,154L1055,266Z" fill="#ef9941" stroke="#ef9941" stroke-width="1.51"/><path d="M916,88L859,45L835,176Z" fill="#fdb45f" stroke="#fdb45f" stroke-width="1.51"/><path d="M906,-61L859,45L916,88Z" fill="#feb669" stroke="#feb669" stroke-width="1.51"/><path d="M323,131L340,255L405,221Z" fill="#ffd87c" stroke="#ffd87c" stroke-width="1.51"/><path d="M586,52L521,73L621,130Z" fill="#ffd074" stroke="#ffd074" stroke-width="1.51"/><path d="M405,697L340,762L426,747Z" fill="#eb943f" stroke="#eb943f" stroke-width="1.51"/><path d="M343,463L317,586L446,567Z" fill="#fcad4d" stroke="#fcad4d" stroke-width="1.51"/><path d="M259,547L317,586L343,463Z" fill="#fcb258" stroke="#fcb258" stroke-width="1.51"/><path d="M862,808L914,834L873,754Z" fill="#d6600e" stroke="#d6600e" stroke-width="1.51"/><path d="M1120,665L1142,608L1016,649Z" fill="#dc5f0a" stroke="#dc5f0a" stroke-width="1.51"/><path d="M879,927L914,834L862,808Z" fill="#cc5a0e" stroke="#cc5a0e" stroke-width="1.51"/><path d="M405,221L340,255L431,321Z" fill="#ffcf68" stroke="#ffcf68" stroke-width="1.51"/><path d="M230,473L259,547L343,463Z" fill="#ffb95e" stroke="#ffb95e" stroke-width="1.51"/><path d="M405,126L405,221L490,127Z" fill="#ffd779" stroke="#ffd779" stroke-width="1.51"/><path d="M1139,298L1055,266L1055,401Z" fill="#ec8c2a" stroke="#ec8c2a" stroke-width="1.51"/><path d="M340,255L306,341L431,321Z" fill="#ffcd65" stroke="#ffcd65" stroke-width="1.51"/><path d="M1181,385L1139,298L1103,431Z" fill="#e88022" stroke="#e88022" stroke-width="1.51"/><path d="M1103,431L1139,298L1055,401Z" fill="#ea8323" stroke="#ea8323" stroke-width="1.51"/><path d="M500,850L602,753L489,756Z" fill="#e18428" stroke="#e18428" stroke-width="1.51"/><path d="M743,826L879,927L862,808Z" fill="#cf6111" stroke="#cf6111" stroke-width="1.51"/><path d="M734,46L661,-47L708,50Z" fill="#ffc974" stroke="#ffc974" stroke-width="1.51"/><path d="M859,45L785,9L734,46Z" fill="#ffbf6c" stroke="#ffbf6c" stroke-width="1.51"/><path d="M1200,523L1181,385L1103,431Z" fill="#e47317" stroke="#e47317" stroke-width="1.51"/><path d="M1016,649L1142,608L1019,545Z" fill="#e3660f" stroke="#e3660f" stroke-width="1.51"/><path d="M1030,777L1016,649L943,733Z" fill="#db5d0a" stroke="#db5d0a" stroke-width="1.51"/><path d="M914,834L1030,777L943,733Z" fill="#d55a0a" stroke="#d55a0a" stroke-width="1.51"/><path d="M1114,725L1120,665L1016,649Z" fill="#d85b08" stroke="#d85b08" stroke-width="1.51"/><path d="M443,63L405,126L490,127Z" fill="#ffda80" stroke="#ffda80" stroke-width="1.51"/><path d="M447,846L500,850L489,756Z" fill="#dc862e" stroke="#dc862e" stroke-width="1.51"/><path d="M1200,523L1103,431L1085,505Z" fill="#e57015" stroke="#e57015" stroke-width="1.51"/><path d="M1142,608L1187,550L1085,505Z" fill="#e0660f" stroke="#e0660f" stroke-width="1.51"/><path d="M1174,671L1187,550L1142,608Z" fill="#d95c0a" stroke="#d95c0a" stroke-width="1.51"/><path d="M230,473L343,463L331,406Z" fill="#ffbe5e" stroke="#ffbe5e" stroke-width="1.51"/><path d="M317,586L297,675L405,697Z" fill="#f4a14b" stroke="#f4a14b" stroke-width="1.51"/><path d="M426,747L447,846L489,756Z" fill="#e28b33" stroke="#e28b33" stroke-width="1.51"/><path d="M521,73L443,63L490,127Z" fill="#ffd97c" stroke="#ffd97c" stroke-width="1.51"/><path d="M476,-50L443,63L521,73Z" fill="#ffdd86" stroke="#ffdd86" stroke-width="1.51"/><path d="M560,-25L521,73L586,52Z" fill="#ffd67d" stroke="#ffd67d" stroke-width="1.51"/><path d="M1120,665L1174,671L1142,608Z" fill="#d75907" stroke="#d75907" stroke-width="1.51"/><path d="M1030,777L1114,725L1016,649Z" fill="#d75908" stroke="#d75908" stroke-width="1.51"/><path d="M1181,385L1179,296L1139,298Z" fill="#e58527" stroke="#e58527" stroke-width="1.51"/><path d="M1139,298L1179,296L1102,244Z" fill="#e88d30" stroke="#e88d30" stroke-width="1.51"/><path d="M1102,244L1085,117L1030,154Z" fill="#ef9d4b" stroke="#ef9d4b" stroke-width="1.51"/><path d="M1226,265L1179,296L1252,353Z" fill="#df842a" stroke="#df842a" stroke-width="1.51"/><path d="M1187,550L1200,523L1085,505Z" fill="#e06911" stroke="#e06911" stroke-width="1.51"/><path d="M1274,490L1200,523L1275,570Z" fill="#d56310" stroke="#d56310" stroke-width="1.51"/><path d="M259,547L297,675L317,586Z" fill="#f9ab55" stroke="#f9ab55" stroke-width="1.51"/><path d="M340,762L447,846L426,747Z" fill="#e38e3b" stroke="#e38e3b" stroke-width="1.51"/><path d="M587,918L675,933L593,871Z" fill="#cb711e" stroke="#cb711e" stroke-width="1.51"/><path d="M593,871L675,933L659,805Z" fill="#d2711d" stroke="#d2711d" stroke-width="1.51"/><path d="M587,918L593,871L515,893Z" fill="#ce7724" stroke="#ce7724" stroke-width="1.51"/><path d="M515,893L593,871L500,850Z" fill="#d27c27" stroke="#d27c27" stroke-width="1.51"/><path d="M1030,154L1009,34L952,154Z" fill="#f6a858" stroke="#f6a858" stroke-width="1.51"/><path d="M859,45L850,-53L785,9Z" fill="#ffbd6f" stroke="#ffbd6f" stroke-width="1.51"/><path d="M1188,81L1085,117L1223,113Z" fill="#ea9b53" stroke="#ea9b53" stroke-width="1.51"/><path d="M447,846L515,893L500,850Z" fill="#d3812c" stroke="#d3812c" stroke-width="1.51"/><path d="M259,547L236,695L297,675Z" fill="#f6a756" stroke="#f6a756" stroke-width="1.51"/><path d="M223,407L230,473L331,406Z" fill="#ffc265" stroke="#ffc265" stroke-width="1.51"/><path d="M223,407L331,406L306,341Z" fill="#ffc867" stroke="#ffc867" stroke-width="1.51"/><path d="M236,339L306,341L247,224Z" fill="#ffd473" stroke="#ffd473" stroke-width="1.51"/><path d="M297,675L340,762L405,697Z" fill="#ee9a46" stroke="#ee9a46" stroke-width="1.51"/><path d="M963,893L1051,824L914,834Z" fill="#c8520a" stroke="#c8520a" stroke-width="1.51"/><path d="M914,834L1051,824L1030,777Z" fill="#cd5408" stroke="#cd5408" stroke-width="1.51"/><path d="M1030,777L1051,824L1114,725Z" fill="#ce5205" stroke="#ce5205" stroke-width="1.51"/><path d="M785,9L661,-47L734,46Z" fill="#ffc774" stroke="#ffc774" stroke-width="1.51"/><path d="M761,-94L661,-47L785,9Z" fill="#ffc87a" stroke="#ffc87a" stroke-width="1.51"/><path d="M247,224L306,341L340,255Z" fill="#ffd575" stroke="#ffd575" stroke-width="1.51"/><path d="M323,131L405,221L405,126Z" fill="#ffdb81" stroke="#ffdb81" stroke-width="1.51"/><path d="M661,-47L560,-25L586,52Z" fill="#ffd47f" stroke="#ffd47f" stroke-width="1.51"/><path d="M1248,686L1174,671L1202,772Z" fill="#ca4e04" stroke="#ca4e04" stroke-width="1.51"/><path d="M1114,725L1174,671L1120,665Z" fill="#d45606" stroke="#d45606" stroke-width="1.51"/><path d="M236,339L223,407L306,341Z" fill="#ffcc6d" stroke="#ffcc6d" stroke-width="1.51"/><path d="M774,955L879,927L743,826Z" fill="#c85f12" stroke="#c85f12" stroke-width="1.51"/><path d="M1085,117L1009,34L1030,154Z" fill="#f3a558" stroke="#f3a558" stroke-width="1.51"/><path d="M879,927L963,893L914,834Z" fill="#c6550c" stroke="#c6550c" stroke-width="1.51"/><path d="M675,933L774,955L743,826Z" fill="#ca6515" stroke="#ca6515" stroke-width="1.51"/><path d="M879,995L774,955L782,1018Z" fill="#b85812" stroke="#b85812" stroke-width="1.51"/><path d="M301,59L323,131L405,126Z" fill="#ffe28f" stroke="#ffe28f" stroke-width="1.51"/><path d="M410,8L405,126L443,63Z" fill="#ffdf89" stroke="#ffdf89" stroke-width="1.51"/><path d="M906,-61L850,-53L859,45Z" fill="#ffbb70" stroke="#ffbb70" stroke-width="1.51"/><path d="M323,131L247,224L340,255Z" fill="#ffdc83" stroke="#ffdc83" stroke-width="1.51"/><path d="M149,405L230,473L223,407Z" fill="#ffc56b" stroke="#ffc56b" stroke-width="1.51"/><path d="M1179,296L1226,265L1102,244Z" fill="#e68c32" stroke="#e68c32" stroke-width="1.51"/><path d="M1111,42L1044,-8L1009,34Z" fill="#f4a963" stroke="#f4a963" stroke-width="1.51"/><path d="M1252,353L1179,296L1181,385Z" fill="#e08025" stroke="#e08025" stroke-width="1.51"/><path d="M1274,490L1181,385L1200,523Z" fill="#dc6d15" stroke="#dc6d15" stroke-width="1.51"/><path d="M1288,400L1252,353L1181,385Z" fill="#dc781f" stroke="#dc781f" stroke-width="1.51"/><path d="M476,-50L410,8L443,63Z" fill="#ffe18e" stroke="#ffe18e" stroke-width="1.51"/><path d="M323,131L211,153L247,224Z" fill="#fee290" stroke="#fee290" stroke-width="1.51"/><path d="M1009,34L906,-61L916,88Z" fill="#fcb367" stroke="#fcb367" stroke-width="1.51"/><path d="M850,-53L761,-94L785,9Z" fill="#ffc278" stroke="#ffc278" stroke-width="1.51"/><path d="M1051,824L1095,843L1114,725Z" fill="#c94e05" stroke="#c94e05" stroke-width="1.51"/><path d="M1057,905L1095,843L1051,824Z" fill="#c04a06" stroke="#c04a06" stroke-width="1.51"/><path d="M1057,905L1051,824L963,893Z" fill="#c14d07" stroke="#c14d07" stroke-width="1.51"/><path d="M867,-133L761,-94L850,-53Z" fill="#ffc17c" stroke="#ffc17c" stroke-width="1.51"/><path d="M500,-125L476,-50L560,-25Z" fill="#ffde8f" stroke="#ffde8f" stroke-width="1.51"/><path d="M560,-25L476,-50L521,73Z" fill="#ffdc85" stroke="#ffdc85" stroke-width="1.51"/><path d="M297,675L255,756L340,762Z" fill="#ec9b4d" stroke="#ec9b4d" stroke-width="1.51"/><path d="M299,835L390,907L447,846Z" fill="#d6893d" stroke="#d6893d" stroke-width="1.51"/><path d="M170,609L236,695L259,547Z" fill="#f9ac5b" stroke="#f9ac5b" stroke-width="1.51"/><path d="M159,507L259,547L230,473Z" fill="#ffba63" stroke="#ffba63" stroke-width="1.51"/><path d="M1275,570L1200,523L1187,550Z" fill="#d7620f" stroke="#d7620f" stroke-width="1.51"/><path d="M1275,570L1187,550L1174,671Z" fill="#d55b0b" stroke="#d55b0b" stroke-width="1.51"/><path d="M622,-143L560,-25L661,-47Z" fill="#ffd487" stroke="#ffd487" stroke-width="1.51"/><path d="M1111,42L1009,34L1085,117Z" fill="#f2a55c" stroke="#f2a55c" stroke-width="1.51"/><path d="M1009,34L930,-81L906,-61Z" fill="#fcb46f" stroke="#fcb46f" stroke-width="1.51"/><path d="M236,695L255,756L297,675Z" fill="#efa052" stroke="#efa052" stroke-width="1.51"/><path d="M447,846L390,907L515,893Z" fill="#d18232" stroke="#d18232" stroke-width="1.51"/><path d="M1188,81L1111,42L1085,117Z" fill="#eea058" stroke="#eea058" stroke-width="1.51"/><path d="M1248,686L1275,570L1174,671Z" fill="#ce5508" stroke="#ce5508" stroke-width="1.51"/><path d="M1202,772L1174,671L1114,725Z" fill="#cd4f03" stroke="#cd4f03" stroke-width="1.51"/><path d="M1033,1000L1057,905L963,893Z" fill="#b74a08" stroke="#b74a08" stroke-width="1.51"/><path d="M948,999L963,893L879,927Z" fill="#bc500c" stroke="#bc500c" stroke-width="1.51"/><path d="M1274,490L1288,400L1181,385Z" fill="#da7119" stroke="#da7119" stroke-width="1.51"/><path d="M1252,353L1269,230L1226,265Z" fill="#db852d" stroke="#db852d" stroke-width="1.51"/><path d="M1378,490L1288,400L1274,490Z" fill="#d16815" stroke="#d16815" stroke-width="1.51"/><path d="M299,835L447,846L340,762Z" fill="#de8e41" stroke="#de8e41" stroke-width="1.51"/><path d="M515,893L538,1003L587,918Z" fill="#c57625" stroke="#c57625" stroke-width="1.51"/><path d="M782,1018L774,955L675,933Z" fill="#be6015" stroke="#be6015" stroke-width="1.51"/><path d="M149,405L159,507L230,473Z" fill="#ffc26a" stroke="#ffc26a" stroke-width="1.51"/><path d="M236,695L183,718L255,756Z" fill="#eea055" stroke="#eea055" stroke-width="1.51"/><path d="M170,323L223,407L236,339Z" fill="#ffcf72" stroke="#ffcf72" stroke-width="1.51"/><path d="M774,955L879,995L879,927Z" fill="#bc5711" stroke="#bc5711" stroke-width="1.51"/><path d="M782,1018L675,933L645,1037Z" fill="#ba6218" stroke="#ba6218" stroke-width="1.51"/><path d="M168,242L170,323L236,339Z" fill="#ffd77a" stroke="#ffd77a" stroke-width="1.51"/><path d="M168,242L236,339L247,224Z" fill="#ffda7e" stroke="#ffda7e" stroke-width="1.51"/><path d="M906,-61L867,-133L850,-53Z" fill="#ffbc78" stroke="#ffbc78" stroke-width="1.51"/><path d="M1044,-8L930,-81L1009,34Z" fill="#f9b06b" stroke="#f9b06b" stroke-width="1.51"/><path d="M645,1037L675,933L587,918Z" fill="#c16b1e" stroke="#c16b1e" stroke-width="1.51"/><path d="M255,756L299,835L340,762Z" fill="#e4964b" stroke="#e4964b" stroke-width="1.51"/><path d="M410,8L301,59L405,126Z" fill="#ffe291" stroke="#ffe291" stroke-width="1.51"/><path d="M351,-38L301,59L410,8Z" fill="#ffe79b" stroke="#ffe79b" stroke-width="1.51"/><path d="M1202,772L1114,725L1095,843Z" fill="#c84b03" stroke="#c84b03" stroke-width="1.51"/><path d="M170,323L149,405L223,407Z" fill="#ffcd73" stroke="#ffcd73" stroke-width="1.51"/><path d="M159,507L170,609L259,547Z" fill="#fdb562" stroke="#fdb562" stroke-width="1.51"/><path d="M255,756L236,804L299,835Z" fill="#e2964f" stroke="#e2964f" stroke-width="1.51"/><path d="M1192,844L1202,772L1095,843Z" fill="#bf4603" stroke="#bf4603" stroke-width="1.51"/><path d="M415,1011L538,1003L515,893Z" fill="#c0792b" stroke="#c0792b" stroke-width="1.51"/><path d="M761,-94L699,-138L661,-47Z" fill="#ffcc82" stroke="#ffcc82" stroke-width="1.51"/><path d="M867,-133L699,-138L761,-94Z" fill="#ffc683" stroke="#ffc683" stroke-width="1.51"/><path d="M1223,113L1085,117L1102,244Z" fill="#eb9a4c" stroke="#eb9a4c" stroke-width="1.51"/><path d="M1345,237L1269,230L1252,353Z" fill="#d68430" stroke="#d68430" stroke-width="1.51"/><path d="M1044,-8L1008,-114L930,-81Z" fill="#fab171" stroke="#fab171" stroke-width="1.51"/><path d="M1111,42L1079,-24L1044,-8Z" fill="#f3a964" stroke="#f3a964" stroke-width="1.51"/><path d="M1106,-117L1079,-24L1177,-102Z" fill="#f1a76e" stroke="#f1a76e" stroke-width="1.51"/><path d="M220,84L211,153L323,131Z" fill="#fee698" stroke="#fee698" stroke-width="1.51"/><path d="M170,323L95,389L149,405Z" fill="#ffd078" stroke="#ffd078" stroke-width="1.51"/><path d="M1223,113L1102,244L1226,265Z" fill="#e59140" stroke="#e59140" stroke-width="1.51"/><path d="M211,153L168,242L247,224Z" fill="#ffe08d" stroke="#ffe08d" stroke-width="1.51"/><path d="M570,1028L645,1037L587,918Z" fill="#bb6c21" stroke="#bb6c21" stroke-width="1.51"/><path d="M879,995L948,999L879,927Z" fill="#b7510e" stroke="#b7510e" stroke-width="1.51"/><path d="M782,1018L948,999L879,995Z" fill="#b35210" stroke="#b35210" stroke-width="1.51"/><path d="M1033,1000L948,999L782,1018Z" fill="#b04d0e" stroke="#b04d0e" stroke-width="1.51"/><path d="M81,695L177,693L170,609Z" fill="#f5aa60" stroke="#f5aa60" stroke-width="1.51"/><path d="M170,609L177,693L236,695Z" fill="#f4a85b" stroke="#f4a85b" stroke-width="1.51"/><path d="M47,545L170,609L159,507Z" fill="#feb869" stroke="#feb869" stroke-width="1.51"/><path d="M415,1011L570,1028L538,1003Z" fill="#b77428" stroke="#b77428" stroke-width="1.51"/><path d="M538,1003L570,1028L587,918Z" fill="#be7124" stroke="#be7124" stroke-width="1.51"/><path d="M930,-81L867,-133L906,-61Z" fill="#ffba79" stroke="#ffba79" stroke-width="1.51"/><path d="M1008,-114L867,-133L930,-81Z" fill="#ffb779" stroke="#ffb779" stroke-width="1.51"/><path d="M699,-138L622,-143L661,-47Z" fill="#ffd189" stroke="#ffd189" stroke-width="1.51"/><path d="M476,-50L351,-38L410,8Z" fill="#ffe497" stroke="#ffe497" stroke-width="1.51"/><path d="M867,-133L622,-143L699,-138Z" fill="#ffca87" stroke="#ffca87" stroke-width="1.51"/><path d="M1269,230L1223,113L1226,265Z" fill="#de8e40" stroke="#de8e40" stroke-width="1.51"/><path d="M1204,-43L1079,-24L1111,42Z" fill="#efa564" stroke="#efa564" stroke-width="1.51"/><path d="M183,718L236,804L255,756Z" fill="#ea9c53" stroke="#ea9c53" stroke-width="1.51"/><path d="M299,835L332,950L390,907Z" fill="#d08842" stroke="#d08842" stroke-width="1.51"/><path d="M390,907L415,1011L515,893Z" fill="#c77e33" stroke="#c77e33" stroke-width="1.51"/><path d="M177,693L183,718L236,695Z" fill="#f1a359" stroke="#f1a359" stroke-width="1.51"/><path d="M1182,891L1192,844L1095,843Z" fill="#b94303" stroke="#b94303" stroke-width="1.51"/><path d="M1202,772L1311,785L1248,686Z" fill="#c04703" stroke="#c04703" stroke-width="1.51"/><path d="M1182,891L1095,843L1138,943Z" fill="#b54204" stroke="#b54204" stroke-width="1.51"/><path d="M301,59L220,84L323,131Z" fill="#ffe79a" stroke="#ffe79a" stroke-width="1.51"/><path d="M424,-141L351,-38L476,-50Z" fill="#ffe59d" stroke="#ffe59d" stroke-width="1.51"/><path d="M622,-143L500,-125L560,-25Z" fill="#ffda8f" stroke="#ffda8f" stroke-width="1.51"/><path d="M43,227L70,314L168,242Z" fill="#ffe08d" stroke="#ffe08d" stroke-width="1.51"/><path d="M262,-2L220,84L301,59Z" fill="#ffeaa2" stroke="#ffeaa2" stroke-width="1.51"/><path d="M1223,113L1297,49L1188,81Z" fill="#e19855" stroke="#e19855" stroke-width="1.51"/><path d="M1269,230L1261,122L1223,113Z" fill="#dd924a" stroke="#dd924a" stroke-width="1.51"/><path d="M1345,237L1261,122L1269,230Z" fill="#d88b40" stroke="#d88b40" stroke-width="1.51"/><path d="M1106,-117L1008,-114L1079,-24Z" fill="#f5ac71" stroke="#f5ac71" stroke-width="1.51"/><path d="M1079,-24L1008,-114L1044,-8Z" fill="#f6ad6d" stroke="#f6ad6d" stroke-width="1.51"/><path d="M149,405L57,507L159,507Z" fill="#ffc36f" stroke="#ffc36f" stroke-width="1.51"/><path d="M177,693L81,695L183,718Z" fill="#f2a55e" stroke="#f2a55e" stroke-width="1.51"/><path d="M70,314L95,389L170,323Z" fill="#ffd57e" stroke="#ffd57e" stroke-width="1.51"/><path d="M70,314L170,323L168,242Z" fill="#ffdb81" stroke="#ffdb81" stroke-width="1.51"/><path d="M948,999L1033,1000L963,893Z" fill="#b34b0b" stroke="#b34b0b" stroke-width="1.51"/><path d="M1274,1015L1033,1000L782,1018Z" fill="#a74409" stroke="#a74409" stroke-width="1.51"/><path d="M256,941L332,950L299,835Z" fill="#ce8a48" stroke="#ce8a48" stroke-width="1.51"/><path d="M1398,594L1275,570L1373,688Z" fill="#c2510a" stroke="#c2510a" stroke-width="1.51"/><path d="M1138,943L1095,843L1057,905Z" fill="#b74505" stroke="#b74505" stroke-width="1.51"/><path d="M332,950L415,1011L390,907Z" fill="#c4813c" stroke="#c4813c" stroke-width="1.51"/><path d="M570,1028L335,1016L645,1037Z" fill="#b57328" stroke="#b57328" stroke-width="1.51"/><path d="M1033,1000L1138,943L1057,905Z" fill="#af4407" stroke="#af4407" stroke-width="1.51"/><path d="M351,-38L262,-2L301,59Z" fill="#ffeba3" stroke="#ffeba3" stroke-width="1.51"/><path d="M263,-121L262,-2L351,-38Z" fill="#ffeead" stroke="#ffeead" stroke-width="1.51"/><path d="M1383,302L1345,237L1252,353Z" fill="#d27f2a" stroke="#d27f2a" stroke-width="1.51"/><path d="M1275,570L1378,490L1274,490Z" fill="#ce6111" stroke="#ce6111" stroke-width="1.51"/><path d="M1398,594L1378,490L1275,570Z" fill="#c75a0f" stroke="#c75a0f" stroke-width="1.51"/><path d="M1311,785L1202,772L1192,844Z" fill="#ba4403" stroke="#ba4403" stroke-width="1.51"/><path d="M1383,302L1252,353L1288,400Z" fill="#d47823" stroke="#d47823" stroke-width="1.51"/><path d="M1378,490L1384,419L1288,400Z" fill="#cd6918" stroke="#cd6918" stroke-width="1.51"/><path d="M622,-143L424,-141L500,-125Z" fill="#ffe098" stroke="#ffe098" stroke-width="1.51"/><path d="M500,-125L424,-141L476,-50Z" fill="#ffe29a" stroke="#ffe29a" stroke-width="1.51"/><path d="M95,389L57,507L149,405Z" fill="#ffc974" stroke="#ffc974" stroke-width="1.51"/><path d="M132,113L168,242L211,153Z" fill="#ffe698" stroke="#ffe698" stroke-width="1.51"/><path d="M132,113L211,153L220,84Z" fill="#ffe9a0" stroke="#ffe9a0" stroke-width="1.51"/><path d="M-41,436L57,507L95,389Z" fill="#ffca7a" stroke="#ffca7a" stroke-width="1.51"/><path d="M1384,419L1383,302L1288,400Z" fill="#ce7320" stroke="#ce7320" stroke-width="1.51"/><path d="M1304,869L1311,785L1192,844Z" fill="#b03f03" stroke="#b03f03" stroke-width="1.51"/><path d="M1304,869L1192,844L1283,923Z" fill="#a93c04" stroke="#a93c04" stroke-width="1.51"/><path d="M1138,943L1173,980L1182,891Z" fill="#ab3e04" stroke="#ab3e04" stroke-width="1.51"/><path d="M1033,1000L1136,988L1138,943Z" fill="#a94007" stroke="#a94007" stroke-width="1.51"/><path d="M332,950L335,1016L415,1011Z" fill="#be803e" stroke="#be803e" stroke-width="1.51"/><path d="M236,804L256,941L299,835Z" fill="#d7904d" stroke="#d7904d" stroke-width="1.51"/><path d="M159,935L256,941L236,804Z" fill="#d29050" stroke="#d29050" stroke-width="1.51"/><path d="M143,836L236,804L183,718Z" fill="#e69b56" stroke="#e69b56" stroke-width="1.51"/><path d="M133,52L132,113L220,84Z" fill="#ffeda7" stroke="#ffeda7" stroke-width="1.51"/><path d="M1008,-114L1106,-117L867,-133Z" fill="#fbb378" stroke="#fbb378" stroke-width="1.51"/><path d="M1204,-43L1111,42L1188,81Z" fill="#eba05d" stroke="#eba05d" stroke-width="1.51"/><path d="M1204,-43L1188,81L1297,49Z" fill="#e39c5c" stroke="#e39c5c" stroke-width="1.51"/><path d="M57,507L47,545L159,507Z" fill="#ffbe6f" stroke="#ffbe6f" stroke-width="1.51"/><path d="M15,601L47,545L-45,515Z" fill="#ffbc75" stroke="#ffbc75" stroke-width="1.51"/><path d="M1297,49L1223,113L1261,122Z" fill="#de9652" stroke="#de9652" stroke-width="1.51"/><path d="M1297,49L1261,122L1359,83Z" fill="#d89353" stroke="#d89353" stroke-width="1.51"/><path d="M274,1014L335,1016L332,950Z" fill="#bd8345" stroke="#bd8345" stroke-width="1.51"/><path d="M415,1011L335,1016L570,1028Z" fill="#b87932" stroke="#b87932" stroke-width="1.51"/><path d="M15,601L81,695L170,609Z" fill="#f9b068" stroke="#f9b068" stroke-width="1.51"/><path d="M1373,688L1275,570L1248,686Z" fill="#c55008" stroke="#c55008" stroke-width="1.51"/><path d="M1378,490L1445,474L1384,419Z" fill="#c66315" stroke="#c66315" stroke-width="1.51"/><path d="M1463,288L1437,262L1383,302Z" fill="#c57b2c" stroke="#c57b2c" stroke-width="1.51"/><path d="M1311,785L1373,688L1248,686Z" fill="#bc4705" stroke="#bc4705" stroke-width="1.51"/><path d="M1136,988L1173,980L1138,943Z" fill="#a63d05" stroke="#a63d05" stroke-width="1.51"/><path d="M81,695L143,836L183,718Z" fill="#eda15c" stroke="#eda15c" stroke-width="1.51"/><path d="M256,941L274,1014L332,950Z" fill="#c38749" stroke="#c38749" stroke-width="1.51"/><path d="M1359,83L1261,122L1402,164Z" fill="#d38f4d" stroke="#d38f4d" stroke-width="1.51"/><path d="M132,113L43,227L168,242Z" fill="#ffe699" stroke="#ffe699" stroke-width="1.51"/><path d="M153,1L133,52L220,84Z" fill="#ffefac" stroke="#ffefac" stroke-width="1.51"/><path d="M153,1L220,84L262,-2Z" fill="#ffeea9" stroke="#ffeea9" stroke-width="1.51"/><path d="M1473,671L1429,555L1398,594Z" fill="#b94e0b" stroke="#b94e0b" stroke-width="1.51"/><path d="M1398,594L1429,555L1378,490Z" fill="#c15810" stroke="#c15810" stroke-width="1.51"/><path d="M1274,-92L1177,-102L1204,-43Z" fill="#e6a06b" stroke="#e6a06b" stroke-width="1.51"/><path d="M1204,-43L1177,-102L1079,-24Z" fill="#efa469" stroke="#efa469" stroke-width="1.51"/><path d="M424,-141L311,-133L351,-38Z" fill="#ffeaa9" stroke="#ffeaa9" stroke-width="1.51"/><path d="M56,120L43,227L132,113Z" fill="#ffeca5" stroke="#ffeca5" stroke-width="1.51"/><path d="M-47,347L-41,436L95,389Z" fill="#ffd283" stroke="#ffd283" stroke-width="1.51"/><path d="M1283,923L1192,844L1182,891Z" fill="#ad3d04" stroke="#ad3d04" stroke-width="1.51"/><path d="M1311,785L1388,779L1373,688Z" fill="#b34003" stroke="#b34003" stroke-width="1.51"/><path d="M1373,688L1473,671L1398,594Z" fill="#b74a09" stroke="#b74a09" stroke-width="1.51"/><path d="M1429,555L1445,474L1378,490Z" fill="#c15d12" stroke="#c15d12" stroke-width="1.51"/><path d="M1402,164L1261,122L1345,237Z" fill="#d38a45" stroke="#d38a45" stroke-width="1.51"/><path d="M154,1004L274,1014L256,941Z" fill="#c0884e" stroke="#c0884e" stroke-width="1.51"/><path d="M335,1016L59,1025L645,1037Z" fill="#b77f40" stroke="#b77f40" stroke-width="1.51"/><path d="M47,545L15,601L170,609Z" fill="#fdb76c" stroke="#fdb76c" stroke-width="1.51"/><path d="M81,695L38,722L143,836Z" fill="#eda361" stroke="#eda361" stroke-width="1.51"/><path d="M-45,515L47,545L57,507Z" fill="#ffc075" stroke="#ffc075" stroke-width="1.51"/><path d="M177,-102L153,1L262,-2Z" fill="#fff2b3" stroke="#fff2b3" stroke-width="1.51"/><path d="M43,88L56,120L132,113Z" fill="#ffefac" stroke="#ffefac" stroke-width="1.51"/><path d="M311,-133L263,-121L351,-38Z" fill="#ffeeb0" stroke="#ffeeb0" stroke-width="1.51"/><path d="M1297,49L1310,-22L1204,-43Z" fill="#df9b60" stroke="#df9b60" stroke-width="1.51"/><path d="M1402,164L1345,237L1437,262Z" fill="#cb833a" stroke="#cb833a" stroke-width="1.51"/><path d="M1173,980L1283,923L1182,891Z" fill="#a63b04" stroke="#a63b04" stroke-width="1.51"/><path d="M1399,844L1388,779L1311,785Z" fill="#aa3c04" stroke="#aa3c04" stroke-width="1.51"/><path d="M1437,262L1345,237L1383,302Z" fill="#cb7e30" stroke="#cb7e30" stroke-width="1.51"/><path d="M1462,374L1383,302L1384,419Z" fill="#c77121" stroke="#c77121" stroke-width="1.51"/><path d="M143,836L159,935L236,804Z" fill="#d99455" stroke="#d99455" stroke-width="1.51"/><path d="M11,670L38,722L81,695Z" fill="#f4aa68" stroke="#f4aa68" stroke-width="1.51"/><path d="M1429,555L1513,495L1445,474Z" fill="#bb5b13" stroke="#bb5b13" stroke-width="1.51"/><path d="M1399,844L1311,785L1304,869Z" fill="#a83b04" stroke="#a83b04" stroke-width="1.51"/><path d="M1445,474L1462,374L1384,419Z" fill="#c36819" stroke="#c36819" stroke-width="1.51"/><path d="M43,88L132,113L133,52Z" fill="#ffefac" stroke="#ffefac" stroke-width="1.51"/><path d="M78,933L159,935L143,836Z" fill="#d29359" stroke="#d29359" stroke-width="1.51"/><path d="M15,601L11,670L81,695Z" fill="#f8af6b" stroke="#f8af6b" stroke-width="1.51"/><path d="M1392,-8L1310,-22L1297,49Z" fill="#d6975d" stroke="#d6975d" stroke-width="1.51"/><path d="M1392,-8L1297,49L1359,83Z" fill="#d49358" stroke="#d49358" stroke-width="1.51"/><path d="M1462,374L1463,288L1383,302Z" fill="#c37626" stroke="#c37626" stroke-width="1.51"/><path d="M1437,262L1466,131L1402,164Z" fill="#c68441" stroke="#c68441" stroke-width="1.51"/><path d="M-47,347L70,314L-42,246Z" fill="#ffde8e" stroke="#ffde8e" stroke-width="1.51"/><path d="M-47,347L95,389L70,314Z" fill="#ffd784" stroke="#ffd784" stroke-width="1.51"/><path d="M15,601L-68,631L11,670Z" fill="#fab271" stroke="#fab271" stroke-width="1.51"/><path d="M56,120L15,144L43,227Z" fill="#ffeca6" stroke="#ffeca6" stroke-width="1.51"/><path d="M83,-59L43,88L133,52Z" fill="#fff4b6" stroke="#fff4b6" stroke-width="1.51"/><path d="M83,-59L133,52L153,1Z" fill="#fff4b7" stroke="#fff4b7" stroke-width="1.51"/><path d="M43,88L15,144L56,120Z" fill="#ffefae" stroke="#ffefae" stroke-width="1.51"/><path d="M1310,-22L1274,-92L1204,-43Z" fill="#e19d66" stroke="#e19d66" stroke-width="1.51"/><path d="M1177,-102L1388,-120L1106,-117Z" fill="#e7a16f" stroke="#e7a16f" stroke-width="1.51"/><path d="M-41,436L-45,515L57,507Z" fill="#ffc57b" stroke="#ffc57b" stroke-width="1.51"/><path d="M263,-121L177,-102L262,-2Z" fill="#fff1b6" stroke="#fff1b6" stroke-width="1.51"/><path d="M43,-116L177,-102L263,-121Z" fill="#fff6c2" stroke="#fff6c2" stroke-width="1.51"/><path d="M-41,436L-93,491L-45,515Z" fill="#ffc780" stroke="#ffc780" stroke-width="1.51"/><path d="M-42,246L70,314L43,227Z" fill="#ffe293" stroke="#ffe293" stroke-width="1.51"/><path d="M1388,779L1473,671L1373,688Z" fill="#b04306" stroke="#b04306" stroke-width="1.51"/><path d="M1445,474L1527,417L1462,374Z" fill="#bd651a" stroke="#bd651a" stroke-width="1.51"/><path d="M1462,374L1528,342L1463,288Z" fill="#bd7224" stroke="#bd7224" stroke-width="1.51"/><path d="M1470,784L1473,671L1388,779Z" fill="#aa3e05" stroke="#aa3e05" stroke-width="1.51"/><path d="M1353,920L1399,844L1304,869Z" fill="#9f3704" stroke="#9f3704" stroke-width="1.51"/><path d="M1283,923L1353,920L1304,869Z" fill="#9f3704" stroke="#9f3704" stroke-width="1.51"/><path d="M1375,982L1353,920L1283,923Z" fill="#963305" stroke="#963305" stroke-width="1.51"/><path d="M1173,980L1274,1015L1283,923Z" fill="#9b3705" stroke="#9b3705" stroke-width="1.51"/><path d="M1136,988L1274,1015L1173,980Z" fill="#9d3905" stroke="#9d3905" stroke-width="1.51"/><path d="M1033,1000L1274,1015L1136,988Z" fill="#a13b05" stroke="#a13b05" stroke-width="1.51"/><path d="M645,1037L1274,1015L782,1018Z" fill="#ad4e0f" stroke="#ad4e0f" stroke-width="1.51"/><path d="M1535,560L1513,495L1429,555Z" fill="#b65511" stroke="#b65511" stroke-width="1.51"/><path d="M-82,225L-42,246L15,144Z" fill="#ffe9a5" stroke="#ffe9a5" stroke-width="1.51"/><path d="M15,144L-42,246L43,227Z" fill="#ffe8a1" stroke="#ffe8a1" stroke-width="1.51"/><path d="M38,867L143,836L38,722Z" fill="#e49e61" stroke="#e49e61" stroke-width="1.51"/><path d="M78,933L154,1004L159,935Z" fill="#c78f58" stroke="#c78f58" stroke-width="1.51"/><path d="M159,935L154,1004L256,941Z" fill="#c68b52" stroke="#c68b52" stroke-width="1.51"/><path d="M14,859L38,867L38,722Z" fill="#e29e64" stroke="#e29e64" stroke-width="1.51"/><path d="M-37,778L38,722L11,670Z" fill="#f1a76a" stroke="#f1a76a" stroke-width="1.51"/><path d="M1513,495L1527,417L1445,474Z" fill="#ba5f15" stroke="#ba5f15" stroke-width="1.51"/><path d="M1575,254L1466,131L1437,262Z" fill="#be7e3a" stroke="#be7e3a" stroke-width="1.51"/><path d="M38,867L78,933L143,836Z" fill="#d6975d" stroke="#d6975d" stroke-width="1.51"/><path d="M1575,254L1437,262L1463,288Z" fill="#bd792f" stroke="#bd792f" stroke-width="1.51"/><path d="M1402,164L1466,131L1359,83Z" fill="#ca8b4c" stroke="#ca8b4c" stroke-width="1.51"/><path d="M1310,-22L1388,-120L1274,-92Z" fill="#d99a68" stroke="#d99a68" stroke-width="1.51"/><path d="M-92,334L-83,387L-47,347Z" fill="#ffd88e" stroke="#ffd88e" stroke-width="1.51"/><path d="M-47,347L-83,387L-41,436Z" fill="#ffd388" stroke="#ffd388" stroke-width="1.51"/><path d="M-45,515L-68,631L15,601Z" fill="#ffb976" stroke="#ffb976" stroke-width="1.51"/><path d="M1472,78L1392,-8L1359,83Z" fill="#cc8f56" stroke="#cc8f56" stroke-width="1.51"/><path d="M1527,417L1528,342L1462,374Z" fill="#ba6a1f" stroke="#ba6a1f" stroke-width="1.51"/><path d="M-119,605L-68,631L-45,515Z" fill="#ffba7a" stroke="#ffba7a" stroke-width="1.51"/><path d="M-92,138L-82,225L15,144Z" fill="#ffedae" stroke="#ffedae" stroke-width="1.51"/><path d="M177,-102L83,-59L153,1Z" fill="#fff5bd" stroke="#fff5bd" stroke-width="1.51"/><path d="M-83,387L-93,491L-41,436Z" fill="#ffcc84" stroke="#ffcc84" stroke-width="1.51"/><path d="M1473,671L1535,560L1429,555Z" fill="#b44e0d" stroke="#b44e0d" stroke-width="1.51"/><path d="M1513,495L1535,560L1527,417Z" fill="#b45a14" stroke="#b45a14" stroke-width="1.51"/><path d="M1399,844L1470,784L1388,779Z" fill="#a43a04" stroke="#a43a04" stroke-width="1.51"/><path d="M1473,859L1470,784L1399,844Z" fill="#9c3705" stroke="#9c3705" stroke-width="1.51"/><path d="M1428,928L1399,844L1353,920Z" fill="#973305" stroke="#973305" stroke-width="1.51"/><path d="M1513,695L1535,560L1473,671Z" fill="#ac470b" stroke="#ac470b" stroke-width="1.51"/><path d="M1527,417L1575,254L1528,342Z" fill="#b56e24" stroke="#b56e24" stroke-width="1.51"/><path d="M38,867L-8,937L78,933Z" fill="#d19561" stroke="#d19561" stroke-width="1.51"/><path d="M-37,778L14,859L38,722Z" fill="#e8a168" stroke="#e8a168" stroke-width="1.51"/><path d="M-83,387L-92,334L-93,491Z" fill="#ffd18a" stroke="#ffd18a" stroke-width="1.51"/><path d="M-42,246L-92,334L-47,347Z" fill="#ffde92" stroke="#ffde92" stroke-width="1.51"/><path d="M-82,225L-92,334L-42,246Z" fill="#ffe39b" stroke="#ffe39b" stroke-width="1.51"/><path d="M1470,784L1513,695L1473,671Z" fill="#a74007" stroke="#a74007" stroke-width="1.51"/><path d="M-68,631L-37,778L11,670Z" fill="#f5ac6f" stroke="#f5ac6f" stroke-width="1.51"/><path d="M1466,131L1472,78L1359,83Z" fill="#c78b4f" stroke="#c78b4f" stroke-width="1.51"/><path d="M1549,119L1472,78L1466,131Z" fill="#bf874d" stroke="#bf874d" stroke-width="1.51"/><path d="M-92,138L15,144L-47,34Z" fill="#fff2b8" stroke="#fff2b8" stroke-width="1.51"/><path d="M1274,1015L1375,982L1283,923Z" fill="#933305" stroke="#933305" stroke-width="1.51"/><path d="M1470,784L1558,769L1513,695Z" fill="#a03b05" stroke="#a03b05" stroke-width="1.51"/><path d="M1375,982L1428,928L1353,920Z" fill="#903105" stroke="#903105" stroke-width="1.51"/><path d="M1428,928L1473,859L1399,844Z" fill="#953305" stroke="#953305" stroke-width="1.51"/><path d="M-68,631L-118,772L-37,778Z" fill="#f2a871" stroke="#f2a871" stroke-width="1.51"/><path d="M-93,491L-119,605L-45,515Z" fill="#ffc07e" stroke="#ffc07e" stroke-width="1.51"/><path d="M-92,334L-119,605L-93,491Z" fill="#ffc784" stroke="#ffc784" stroke-width="1.51"/><path d="M-124,35L-119,605L-92,334Z" fill="#ffdd95" stroke="#ffdd95" stroke-width="1.51"/><path d="M83,-59L14,-53L43,88Z" fill="#fff7bf" stroke="#fff7bf" stroke-width="1.51"/><path d="M43,-116L14,-53L83,-59Z" fill="#fff9c9" stroke="#fff9c9" stroke-width="1.51"/><path d="M-47,34L15,144L43,88Z" fill="#fff2b5" stroke="#fff2b5" stroke-width="1.51"/><path d="M-82,225L-92,138L-92,334Z" fill="#ffe7a4" stroke="#ffe7a4" stroke-width="1.51"/><path d="M1535,560L1575,254L1527,417Z" fill="#b4641c" stroke="#b4641c" stroke-width="1.51"/><path d="M1528,342L1575,254L1463,288Z" fill="#b87529" stroke="#b87529" stroke-width="1.51"/><path d="M1392,-8L1388,-120L1310,-22Z" fill="#d39664" stroke="#d39664" stroke-width="1.51"/><path d="M1274,-92L1388,-120L1177,-102Z" fill="#df9d6c" stroke="#df9d6c" stroke-width="1.51"/><path d="M1106,-117L1435,-123L867,-133Z" fill="#f1a773" stroke="#f1a773" stroke-width="1.51"/><path d="M867,-133L1435,-123L622,-143Z" fill="#fcb57b" stroke="#fcb57b" stroke-width="1.51"/><path d="M1440,-60L1388,-120L1392,-8Z" fill="#ce9465" stroke="#ce9465" stroke-width="1.51"/><path d="M1440,-60L1392,-8L1472,78Z" fill="#c9915c" stroke="#c9915c" stroke-width="1.51"/><path d="M14,-53L-47,34L43,88Z" fill="#fff6be" stroke="#fff6be" stroke-width="1.51"/><path d="M1530,-23L1440,-60L1472,78Z" fill="#c38f5c" stroke="#c38f5c" stroke-width="1.51"/><path d="M-132,831L-8,937L14,859Z" fill="#d89969" stroke="#d89969" stroke-width="1.51"/><path d="M14,859L-8,937L38,867Z" fill="#d69763" stroke="#d69763" stroke-width="1.51"/><path d="M78,933L59,1025L154,1004Z" fill="#c18e5a" stroke="#c18e5a" stroke-width="1.51"/><path d="M-132,831L14,859L-37,778Z" fill="#e29f6b" stroke="#e29f6b" stroke-width="1.51"/><path d="M-4,995L59,1025L78,933Z" fill="#c28f5f" stroke="#c28f5f" stroke-width="1.51"/><path d="M154,1004L59,1025L274,1014Z" fill="#bb8954" stroke="#bb8954" stroke-width="1.51"/><path d="M274,1014L59,1025L335,1016Z" fill="#ba864e" stroke="#ba864e" stroke-width="1.51"/><path d="M-131,-30L-124,35L-47,34Z" fill="#fff9ca" stroke="#fff9ca" stroke-width="1.51"/><path d="M177,-102L43,-116L83,-59Z" fill="#fff8c5" stroke="#fff8c5" stroke-width="1.51"/><path d="M-22,-132L43,-116L263,-121Z" fill="#fff9ca" stroke="#fff9ca" stroke-width="1.51"/><path d="M-22,-132L263,-121L311,-133Z" fill="#fff5c2" stroke="#fff5c2" stroke-width="1.51"/><path d="M1525,899L1548,842L1473,859Z" fill="#8d3206" stroke="#8d3206" stroke-width="1.51"/><path d="M1375,982L1424,990L1428,928Z" fill="#893006" stroke="#893006" stroke-width="1.51"/><path d="M1274,1015L1424,990L1375,982Z" fill="#8a3005" stroke="#8a3005" stroke-width="1.51"/><path d="M1575,254L1549,119L1466,131Z" fill="#b98144" stroke="#b98144" stroke-width="1.51"/><path d="M1549,119L1529,69L1472,78Z" fill="#bc8750" stroke="#bc8750" stroke-width="1.51"/><path d="M1535,560L1558,769L1575,254Z" fill="#ae5412" stroke="#ae5412" stroke-width="1.51"/><path d="M1513,695L1558,769L1535,560Z" fill="#a54309" stroke="#a54309" stroke-width="1.51"/><path d="M1548,842L1558,769L1470,784Z" fill="#973706" stroke="#973706" stroke-width="1.51"/><path d="M1548,842L1470,784L1473,859Z" fill="#963505" stroke="#963505" stroke-width="1.51"/><path d="M-119,605L-118,772L-68,631Z" fill="#f8af77" stroke="#f8af77" stroke-width="1.51"/><path d="M-103,952L-4,995L-8,937Z" fill="#c89267" stroke="#c89267" stroke-width="1.51"/><path d="M-8,937L-4,995L78,933Z" fill="#c99262" stroke="#c99262" stroke-width="1.51"/><path d="M1440,-60L1435,-123L1388,-120Z" fill="#cc9469" stroke="#cc9469" stroke-width="1.51"/><path d="M1388,-120L1435,-123L1106,-117Z" fill="#dc9b6e" stroke="#dc9b6e" stroke-width="1.51"/><path d="M1521,-82L1435,-123L1440,-60Z" fill="#c69168" stroke="#c69168" stroke-width="1.51"/><path d="M1525,899L1473,859L1428,928Z" fill="#8d3105" stroke="#8d3105" stroke-width="1.51"/><path d="M1560,979L1525,899L1428,928Z" fill="#832e06" stroke="#832e06" stroke-width="1.51"/><path d="M1575,254L1530,-23L1549,119Z" fill="#b7844c" stroke="#b7844c" stroke-width="1.51"/><path d="M1549,119L1530,-23L1529,69Z" fill="#ba8854" stroke="#ba8854" stroke-width="1.51"/><path d="M1529,69L1530,-23L1472,78Z" fill="#be8a56" stroke="#be8a56" stroke-width="1.51"/><path d="M-118,772L-132,831L-37,778Z" fill="#e8a271" stroke="#e8a271" stroke-width="1.51"/><path d="M-119,605L-132,831L-118,772Z" fill="#f2a875" stroke="#f2a875" stroke-width="1.51"/><path d="M-131,-30L-47,34L14,-53Z" fill="#fffaca" stroke="#fffaca" stroke-width="1.51"/><path d="M-47,34L-124,35L-92,138Z" fill="#fff5c0" stroke="#fff5c0" stroke-width="1.51"/><path d="M-92,138L-124,35L-92,334Z" fill="#ffeeb3" stroke="#ffeeb3" stroke-width="1.51"/><path d="M-119,605L-131,-30L-132,831Z" fill="#ffc987" stroke="#ffc987" stroke-width="1.51"/><path d="M43,-116L-22,-132L14,-53Z" fill="#fffacf" stroke="#fffacf" stroke-width="1.51"/><path d="M424,-141L-22,-132L311,-133Z" fill="#fff3be" stroke="#fff3be" stroke-width="1.51"/><path d="M1530,-23L1521,-82L1440,-60Z" fill="#c18f63" stroke="#c18f63" stroke-width="1.51"/><path d="M1575,254L1521,-82L1530,-23Z" fill="#ba8855" stroke="#ba8855" stroke-width="1.51"/><path d="M-132,831L-103,952L-8,937Z" fill="#d3976b" stroke="#d3976b" stroke-width="1.51"/><path d="M-4,995L-104,1035L59,1025Z" fill="#bd8e64" stroke="#bd8e64" stroke-width="1.51"/><path d="M-22,-132L-131,-30L14,-53Z" fill="#fffbd0" stroke="#fffbd0" stroke-width="1.51"/><path d="M-124,35L-131,-30L-119,605Z" fill="#ffebad" stroke="#ffebad" stroke-width="1.51"/><path d="M1424,990L1560,979L1428,928Z" fill="#822e06" stroke="#822e06" stroke-width="1.51"/><path d="M1525,899L1560,979L1548,842Z" fill="#832e06" stroke="#832e06" stroke-width="1.51"/><path d="M1548,842L1560,979L1558,769Z" fill="#893006" stroke="#893006" stroke-width="1.51"/><path d="M1558,769L1560,979L1575,254Z" fill="#a2420a" stroke="#a2420a" stroke-width="1.51"/><path d="M1274,1015L1560,979L1424,990Z" fill="#832e06" stroke="#832e06" stroke-width="1.51"/><path d="M-132,831L-104,1035L-103,952Z" fill="#ce956e" stroke="#ce956e" stroke-width="1.51"/><path d="M-103,952L-104,1035L-4,995Z" fill="#c29069" stroke="#c29069" stroke-width="1.51"/><path d="M59,1025L-104,1035L645,1037Z" fill="#b88550" stroke="#b88550" stroke-width="1.51"/><path d="M-22,-132L-130,-122L-131,-30Z" fill="#fffcd9" stroke="#fffcd9" stroke-width="1.51"/></svg>