<svg xmlns="http://www.w3.org/2000/svg" width="1440" height="900"><path d="M777,498L1027,576L909,363Z" fill="#878787" stroke="#878787" stroke-width="1.51"/><path d="M1027,576L1072,271L909,363Z" fill="#878787" stroke="#878787" stroke-width="1.51"/><path d="M777,498L746,781L1027,576Z" fill="#808080" stroke="#808080" stroke-width="1.51"/><path d="M614,303L599,564L777,498Z" fill="#999999" stroke="#999999" stroke-width="1.51"/><path d="M599,564L746,781L777,498Z" fill="#898989" stroke="#898989" stroke-width="1.51"/><path d="M909,363L614,303L777,498Z" fill="#989898" stroke="#989898" stroke-width="1.51"/><path d="M794,51L614,303L909,363Z" fill="#a5a5a5" stroke="#a5a5a5" stroke-width="1.51"/><path d="M1027,576L1238,344L1072,271Z" fill="#818181" stroke="#818181" stroke-width="1.51"/><path d="M746,781L1067,841L1027,576Z" fill="#717171" stroke="#717171" stroke-width="1.51"/><path d="M1027,576L1281,612L1238,344Z" fill="#737373" stroke="#737373" stroke-width="1.51"/><path d="M1211,781L1281,612L1027,576Z" fill="#686868" stroke="#686868" stroke-width="1.51"/><path d="M1067,841L1211,781L1027,576Z" fill="#676767" stroke="#676767" stroke-width="1.51"/><path d="M1312,180L967,91L1072,271Z" fill="#929292" stroke="#929292" stroke-width="1.51"/><path d="M1072,271L967,91L909,363Z" fill="#979797" stroke="#979797" stroke-width="1.51"/><path d="M746,781L1052,919L1067,841Z" fill="#676767" stroke="#676767" stroke-width="1.51"/><path d="M599,564L668,833L746,781Z" fill="#838383" stroke="#838383" stroke-width="1.51"/><path d="M1067,841L1052,919L1211,781Z" fill="#5d5d5d" stroke="#5d5d5d" stroke-width="1.51"/><path d="M762,1043L1052,919L746,781Z" fill="#676767" stroke="#676767" stroke-width="1.51"/><path d="M967,91L794,51L909,363Z" fill="#a2a2a2" stroke="#a2a2a2" stroke-width="1.51"/><path d="M794,51L654,99L614,303Z" fill="#b1b1b1" stroke="#b1b1b1" stroke-width="1.51"/><path d="M1238,344L1312,180L1072,271Z" fill="#868686" stroke="#868686" stroke-width="1.51"/><path d="M1407,188L1312,180L1238,344Z" fill="#808080" stroke="#808080" stroke-width="1.51"/><path d="M1281,612L1432,574L1238,344Z" fill="#696969" stroke="#696969" stroke-width="1.51"/><path d="M1484,779L1432,574L1281,612Z" fill="#575757" stroke="#575757" stroke-width="1.51"/><path d="M614,303L368,485L599,564Z" fill="#a4a4a4" stroke="#a4a4a4" stroke-width="1.51"/><path d="M599,564L381,708L668,833Z" fill="#8d8d8d" stroke="#8d8d8d" stroke-width="1.51"/><path d="M323,286L368,485L614,303Z" fill="#b2b2b2" stroke="#b2b2b2" stroke-width="1.51"/><path d="M1069,-125L828,-46L967,91Z" fill="#a9a9a9" stroke="#a9a9a9" stroke-width="1.51"/><path d="M967,91L828,-46L794,51Z" fill="#acacac" stroke="#acacac" stroke-width="1.51"/><path d="M794,51L639,-134L654,99Z" fill="#b9b9b9" stroke="#b9b9b9" stroke-width="1.51"/><path d="M668,833L762,1043L746,781Z" fill="#727272" stroke="#727272" stroke-width="1.51"/><path d="M570,957L762,1043L668,833Z" fill="#6f6f6f" stroke="#6f6f6f" stroke-width="1.51"/><path d="M368,485L381,708L599,564Z" fill="#9e9e9e" stroke="#9e9e9e" stroke-width="1.51"/><path d="M459,948L570,957L668,833Z" fill="#7a7a7a" stroke="#7a7a7a" stroke-width="1.51"/><path d="M1312,180L1069,-125L967,91Z" fill="#9a9a9a" stroke="#9a9a9a" stroke-width="1.51"/><path d="M1507,315L1407,188L1238,344Z" fill="#767676" stroke="#767676" stroke-width="1.51"/><path d="M1432,574L1507,315L1238,344Z" fill="#6a6a6a" stroke="#6a6a6a" stroke-width="1.51"/><path d="M397,-21L408,129L654,99Z" fill="#c5c5c5" stroke="#c5c5c5" stroke-width="1.51"/><path d="M654,99L408,129L614,303Z" fill="#b8b8b8" stroke="#b8b8b8" stroke-width="1.51"/><path d="M408,129L323,286L614,303Z" fill="#bcbcbc" stroke="#bcbcbc" stroke-width="1.51"/><path d="M132,561L230,850L381,708Z" fill="#9e9e9e" stroke="#9e9e9e" stroke-width="1.51"/><path d="M1211,781L1484,779L1281,612Z" fill="#585858" stroke="#585858" stroke-width="1.51"/><path d="M1432,574L1707,488L1507,315Z" fill="#595959" stroke="#595959" stroke-width="1.51"/><path d="M1306,1010L1484,779L1211,781Z" fill="#4d4d4d" stroke="#4d4d4d" stroke-width="1.51"/><path d="M1306,1010L1211,781L1052,919Z" fill="#535353" stroke="#535353" stroke-width="1.51"/><path d="M381,708L459,948L668,833Z" fill="#868686" stroke="#868686" stroke-width="1.51"/><path d="M570,957L624,1246L762,1043Z" fill="#616161" stroke="#616161" stroke-width="1.51"/><path d="M624,1246L884,1138L762,1043Z" fill="#555555" stroke="#555555" stroke-width="1.51"/><path d="M762,1043L884,1138L1052,919Z" fill="#575757" stroke="#575757" stroke-width="1.51"/><path d="M1297,-139L1069,-125L1312,180Z" fill="#979797" stroke="#979797" stroke-width="1.51"/><path d="M1039,1234L1306,1010L1052,919Z" fill="#474747" stroke="#474747" stroke-width="1.51"/><path d="M828,-46L639,-134L794,51Z" fill="#b8b8b8" stroke="#b8b8b8" stroke-width="1.51"/><path d="M856,-334L639,-134L828,-46Z" fill="#bdbdbd" stroke="#bdbdbd" stroke-width="1.51"/><path d="M1306,1010L1483,957L1484,779Z" fill="#404040" stroke="#404040" stroke-width="1.51"/><path d="M1689,704L1707,488L1432,574Z" fill="#4b4b4b" stroke="#4b4b4b" stroke-width="1.51"/><path d="M1334,1227L1483,957L1306,1010Z" fill="#353535" stroke="#353535" stroke-width="1.51"/><path d="M639,-134L397,-21L654,99Z" fill="#c4c4c4" stroke="#c4c4c4" stroke-width="1.51"/><path d="M408,129L224,140L323,286Z" fill="#c7c7c7" stroke="#c7c7c7" stroke-width="1.51"/><path d="M1429,-92L1297,-139L1312,180Z" fill="#8c8c8c" stroke="#8c8c8c" stroke-width="1.51"/><path d="M1069,-125L856,-334L828,-46Z" fill="#b3b3b3" stroke="#b3b3b3" stroke-width="1.51"/><path d="M1429,-92L1312,180L1407,188Z" fill="#828282" stroke="#828282" stroke-width="1.51"/><path d="M884,1138L1039,1234L1052,919Z" fill="#4a4a4a" stroke="#4a4a4a" stroke-width="1.51"/><path d="M624,1246L1039,1234L884,1138Z" fill="#4a4a4a" stroke="#4a4a4a" stroke-width="1.51"/><path d="M381,708L230,850L459,948Z" fill="#8e8e8e" stroke="#8e8e8e" stroke-width="1.51"/><path d="M428,1172L624,1246L570,957Z" fill="#646464" stroke="#646464" stroke-width="1.51"/><path d="M132,561L381,708L368,485Z" fill="#a6a6a6" stroke="#a6a6a6" stroke-width="1.51"/><path d="M323,286L132,561L368,485Z" fill="#b3b3b3" stroke="#b3b3b3" stroke-width="1.51"/><path d="M397,-21L224,140L408,129Z" fill="#cccccc" stroke="#cccccc" stroke-width="1.51"/><path d="M100,282L132,561L323,286Z" fill="#bdbdbd" stroke="#bdbdbd" stroke-width="1.51"/><path d="M1691,72L1429,-92L1407,188Z" fill="#787878" stroke="#787878" stroke-width="1.51"/><path d="M1689,704L1432,574L1484,779Z" fill="#484848" stroke="#484848" stroke-width="1.51"/><path d="M1507,315L1691,72L1407,188Z" fill="#6e6e6e" stroke="#6e6e6e" stroke-width="1.51"/><path d="M428,1172L570,957L459,948Z" fill="#727272" stroke="#727272" stroke-width="1.51"/><path d="M1714,930L1689,704L1484,779Z" fill="#3a3a3a" stroke="#3a3a3a" stroke-width="1.51"/><path d="M210,1068L428,1172L459,948Z" fill="#747474" stroke="#747474" stroke-width="1.51"/><path d="M1689,704L1745,425L1707,488Z" fill="#484848" stroke="#484848" stroke-width="1.51"/><path d="M1707,488L1745,425L1507,315Z" fill="#555555" stroke="#555555" stroke-width="1.51"/><path d="M1013,-343L1069,-125L1340,-262Z" fill="#a6a6a6" stroke="#a6a6a6" stroke-width="1.51"/><path d="M1013,-343L856,-334L1069,-125Z" fill="#b2b2b2" stroke="#b2b2b2" stroke-width="1.51"/><path d="M639,-134L360,-284L397,-21Z" fill="#d2d2d2" stroke="#d2d2d2" stroke-width="1.51"/><path d="M1483,957L1714,930L1484,779Z" fill="#393939" stroke="#393939" stroke-width="1.51"/><path d="M1039,1234L1334,1227L1306,1010Z" fill="#383838" stroke="#383838" stroke-width="1.51"/><path d="M1416,1280L1334,1227L1039,1234Z" fill="#2f2f2f" stroke="#2f2f2f" stroke-width="1.51"/><path d="M224,140L100,282L323,286Z" fill="#c9c9c9" stroke="#c9c9c9" stroke-width="1.51"/><path d="M1340,-262L1069,-125L1297,-139Z" fill="#9e9e9e" stroke="#9e9e9e" stroke-width="1.51"/><path d="M1429,-92L1340,-262L1297,-139Z" fill="#929292" stroke="#929292" stroke-width="1.51"/><path d="M1471,-339L1340,-262L1429,-92Z" fill="#8f8f8f" stroke="#8f8f8f" stroke-width="1.51"/><path d="M397,-21L207,-80L224,140Z" fill="#d4d4d4" stroke="#d4d4d4" stroke-width="1.51"/><path d="M856,-334L672,-349L639,-134Z" fill="#c4c4c4" stroke="#c4c4c4" stroke-width="1.51"/><path d="M1013,-343L672,-349L856,-334Z" fill="#bebebe" stroke="#bebebe" stroke-width="1.51"/><path d="M1745,425L1691,72L1507,315Z" fill="#616161" stroke="#616161" stroke-width="1.51"/><path d="M33,910L210,1068L230,850Z" fill="#8c8c8c" stroke="#8c8c8c" stroke-width="1.51"/><path d="M230,850L210,1068L459,948Z" fill="#848484" stroke="#848484" stroke-width="1.51"/><path d="M1751,1265L1714,930L1483,957Z" fill="#232323" stroke="#232323" stroke-width="1.51"/><path d="M1689,704L1714,930L1745,425Z" fill="#3d3d3d" stroke="#3d3d3d" stroke-width="1.51"/><path d="M360,-284L207,-80L397,-21Z" fill="#d9d9d9" stroke="#d9d9d9" stroke-width="1.51"/><path d="M224,140L-120,184L100,282Z" fill="#d1d1d1" stroke="#d1d1d1" stroke-width="1.51"/><path d="M1334,1227L1416,1280L1483,957Z" fill="#2a2a2a" stroke="#2a2a2a" stroke-width="1.51"/><path d="M624,1246L1416,1280L1039,1234Z" fill="#3c3c3c" stroke="#3c3c3c" stroke-width="1.51"/><path d="M132,561L8,777L230,850Z" fill="#a2a2a2" stroke="#a2a2a2" stroke-width="1.51"/><path d="M-108,349L-14,588L132,561Z" fill="#bababa" stroke="#bababa" stroke-width="1.51"/><path d="M-108,349L132,561L100,282Z" fill="#c1c1c1" stroke="#c1c1c1" stroke-width="1.51"/><path d="M-14,588L8,777L132,561Z" fill="#acacac" stroke="#acacac" stroke-width="1.51"/><path d="M672,-349L360,-284L639,-134Z" fill="#d0d0d0" stroke="#d0d0d0" stroke-width="1.51"/><path d="M-48,1281L213,1157L210,1068Z" fill="#757575" stroke="#757575" stroke-width="1.51"/><path d="M210,1068L213,1157L428,1172Z" fill="#717171" stroke="#717171" stroke-width="1.51"/><path d="M428,1172L-48,1281L624,1246Z" fill="#666666" stroke="#666666" stroke-width="1.51"/><path d="M8,777L33,910L230,850Z" fill="#999999" stroke="#999999" stroke-width="1.51"/><path d="M1691,72L1737,-39L1429,-92Z" fill="#747474" stroke="#747474" stroke-width="1.51"/><path d="M1745,425L1737,-39L1691,72Z" fill="#636363" stroke="#636363" stroke-width="1.51"/><path d="M1616,-301L1471,-339L1429,-92Z" fill="#878787" stroke="#878787" stroke-width="1.51"/><path d="M1340,-262L1471,-339L1013,-343Z" fill="#9f9f9f" stroke="#9f9f9f" stroke-width="1.51"/><path d="M1013,-343L1471,-339L672,-349Z" fill="#b0b0b0" stroke="#b0b0b0" stroke-width="1.51"/><path d="M-120,184L-108,349L100,282Z" fill="#d1d1d1" stroke="#d1d1d1" stroke-width="1.51"/><path d="M-14,588L-213,559L8,777Z" fill="#b1b1b1" stroke="#b1b1b1" stroke-width="1.51"/><path d="M8,777L-236,934L33,910Z" fill="#9d9d9d" stroke="#9d9d9d" stroke-width="1.51"/><path d="M1737,-39L1616,-301L1429,-92Z" fill="#7c7c7c" stroke="#7c7c7c" stroke-width="1.51"/><path d="M-109,-37L-120,184L224,140Z" fill="#dbdbdb" stroke="#dbdbdb" stroke-width="1.51"/><path d="M360,-284L179,-287L207,-80Z" fill="#e1e1e1" stroke="#e1e1e1" stroke-width="1.51"/><path d="M672,-349L179,-287L360,-284Z" fill="#dddddd" stroke="#dddddd" stroke-width="1.51"/><path d="M-109,-37L224,140L207,-80Z" fill="#dcdcdc" stroke="#dcdcdc" stroke-width="1.51"/><path d="M-269,295L-213,559L-108,349Z" fill="#cacaca" stroke="#cacaca" stroke-width="1.51"/><path d="M-108,349L-213,559L-14,588Z" fill="#bebebe" stroke="#bebebe" stroke-width="1.51"/><path d="M1416,1280L1751,1265L1483,957Z" fill="#1f1f1f" stroke="#1f1f1f" stroke-width="1.51"/><path d="M1714,930L1751,1265L1745,425Z" fill="#2f2f2f" stroke="#2f2f2f" stroke-width="1.51"/><path d="M-120,184L-269,295L-108,349Z" fill="#d4d4d4" stroke="#d4d4d4" stroke-width="1.51"/><path d="M-81,-265L-109,-37L207,-80Z" fill="#e8e8e8" stroke="#e8e8e8" stroke-width="1.51"/><path d="M-277,61L-269,295L-120,184Z" fill="#dddddd" stroke="#dddddd" stroke-width="1.51"/><path d="M-279,828L-236,934L8,777Z" fill="#a2a2a2" stroke="#a2a2a2" stroke-width="1.51"/><path d="M33,910L-48,1281L210,1068Z" fill="#7e7e7e" stroke="#7e7e7e" stroke-width="1.51"/><path d="M-279,828L8,777L-213,559Z" fill="#acacac" stroke="#acacac" stroke-width="1.51"/><path d="M-269,295L-279,828L-213,559Z" fill="#bdbdbd" stroke="#bdbdbd" stroke-width="1.51"/><path d="M213,1157L-48,1281L428,1172Z" fill="#6f6f6f" stroke="#6f6f6f" stroke-width="1.51"/><path d="M624,1246L-48,1281L1416,1280Z" fill="#505050" stroke="#505050" stroke-width="1.51"/><path d="M-236,934L-48,1281L33,910Z" fill="#898989" stroke="#898989" stroke-width="1.51"/><path d="M-291,-264L-81,-265L179,-287Z" fill="#f1f1f1" stroke="#f1f1f1" stroke-width="1.51"/><path d="M179,-287L-81,-265L207,-80Z" fill="#e8e8e8" stroke="#e8e8e8" stroke-width="1.51"/><path d="M-109,-37L-277,61L-120,184Z" fill="#e3e3e3" stroke="#e3e3e3" stroke-width="1.51"/><path d="M-307,-140L-277,61L-109,-37Z" fill="#ebebeb" stroke="#ebebeb" stroke-width="1.51"/><path d="M-269,295L-307,-140L-279,828Z" fill="#d3d3d3" stroke="#d3d3d3" stroke-width="1.51"/><path d="M-81,-265L-307,-140L-109,-37Z" fill="#efefef" stroke="#efefef" stroke-width="1.51"/><path d="M-277,61L-307,-140L-269,295Z" fill="#e6e6e6" stroke="#e6e6e6" stroke-width="1.51"/><path d="M-81,-265L-291,-264L-307,-140Z" fill="#f5f5f5" stroke="#f5f5f5" stroke-width="1.51"/><path d="M672,-349L-291,-264L179,-287Z" fill="#e7e7e7" stroke="#e7e7e7" stroke-width="1.51"/><path d="M-236,934L-294,1262L-48,1281Z" fill="#818181" stroke="#818181" stroke-width="1.51"/><path d="M-279,828L-294,1262L-236,934Z" fill="#929292" stroke="#929292" stroke-width="1.51"/><path d="M-307,-140L-294,1262L-279,828Z" fill="#b6b6b6" stroke="#b6b6b6" stroke-width="1.51"/></svg>