<svg xmlns="http://www.w3.org/2000/svg" width="1440" height="900"><path d="M777,498L1027,576L909,363Z" fill="#5ba2cf" stroke="#5ba2cf" stroke-width="1.51"/><path d="M1027,576L1072,271L909,363Z" fill="#5ea2cf" stroke="#5ea2cf" stroke-width="1.51"/><path d="M777,498L746,781L1027,576Z" fill="#529ccc" stroke="#529ccc" stroke-width="1.51"/><path d="M614,303L599,564L777,498Z" fill="#71b0d7" stroke="#71b0d7" stroke-width="1.51"/><path d="M599,564L746,781L777,498Z" fill="#5ea4d0" stroke="#5ea4d0" stroke-width="1.51"/><path d="M909,363L614,303L777,498Z" fill="#70afd6" stroke="#70afd6" stroke-width="1.51"/><path d="M794,51L614,303L909,363Z" fill="#82b8da" stroke="#82b8da" stroke-width="1.51"/><path d="M1027,576L1238,344L1072,271Z" fill="#5a9ccc" stroke="#5a9ccc" stroke-width="1.51"/><path d="M746,781L1067,841L1027,576Z" fill="#418fc5" stroke="#418fc5" stroke-width="1.51"/><path d="M1027,576L1281,612L1238,344Z" fill="#4990c6" stroke="#4990c6" stroke-width="1.51"/><path d="M1211,781L1281,612L1027,576Z" fill="#3a87c1" stroke="#3a87c1" stroke-width="1.51"/><path d="M1067,841L1211,781L1027,576Z" fill="#3886c0" stroke="#3886c0" stroke-width="1.51"/><path d="M1312,180L967,91L1072,271Z" fill="#75a7d1" stroke="#75a7d1" stroke-width="1.51"/><path d="M1072,271L967,91L909,363Z" fill="#74aed4" stroke="#74aed4" stroke-width="1.51"/><path d="M746,781L1052,919L1067,841Z" fill="#3a86c0" stroke="#3a86c0" stroke-width="1.51"/><path d="M599,564L668,833L746,781Z" fill="#5a9ecd" stroke="#5a9ecd" stroke-width="1.51"/><path d="M1067,841L1052,919L1211,781Z" fill="#2f7cbb" stroke="#2f7cbb" stroke-width="1.51"/><path d="M762,1043L1052,919L746,781Z" fill="#3f86c0" stroke="#3f86c0" stroke-width="1.51"/><path d="M967,91L794,51L909,363Z" fill="#81b5d9" stroke="#81b5d9" stroke-width="1.51"/><path d="M794,51L654,99L614,303Z" fill="#91c1df" stroke="#91c1df" stroke-width="1.51"/><path d="M1238,344L1312,180L1072,271Z" fill="#689dcc" stroke="#689dcc" stroke-width="1.51"/><path d="M1407,188L1312,180L1238,344Z" fill="#6798c8" stroke="#6798c8" stroke-width="1.51"/><path d="M1281,612L1432,574L1238,344Z" fill="#4487c1" stroke="#4487c1" stroke-width="1.51"/><path d="M1484,779L1432,574L1281,612Z" fill="#3179b7" stroke="#3179b7" stroke-width="1.51"/><path d="M614,303L368,485L599,564Z" fill="#7eb8da" stroke="#7eb8da" stroke-width="1.51"/><path d="M599,564L381,708L668,833Z" fill="#68a6d0" stroke="#68a6d0" stroke-width="1.51"/><path d="M323,286L368,485L614,303Z" fill="#91c2df" stroke="#91c2df" stroke-width="1.51"/><path d="M1069,-125L828,-46L967,91Z" fill="#8fb9dd" stroke="#8fb9dd" stroke-width="1.51"/><path d="M967,91L828,-46L794,51Z" fill="#91bcde" stroke="#91bcde" stroke-width="1.51"/><path d="M794,51L639,-134L654,99Z" fill="#9ec6e3" stroke="#9ec6e3" stroke-width="1.51"/><path d="M668,833L762,1043L746,781Z" fill="#4b8ec6" stroke="#4b8ec6" stroke-width="1.51"/><path d="M570,957L762,1043L668,833Z" fill="#508cc3" stroke="#508cc3" stroke-width="1.51"/><path d="M368,485L381,708L599,564Z" fill="#7bb3d7" stroke="#7bb3d7" stroke-width="1.51"/><path d="M459,948L570,957L668,833Z" fill="#5c94c7" stroke="#5c94c7" stroke-width="1.51"/><path d="M1312,180L1069,-125L967,91Z" fill="#82acd6" stroke="#82acd6" stroke-width="1.51"/><path d="M1507,315L1407,188L1238,344Z" fill="#6091c4" stroke="#6091c4" stroke-width="1.51"/><path d="M1432,574L1507,315L1238,344Z" fill="#4e89c0" stroke="#4e89c0" stroke-width="1.51"/><path d="M397,-21L408,129L654,99Z" fill="#abcee6" stroke="#abcee6" stroke-width="1.51"/><path d="M654,99L408,129L614,303Z" fill="#9ac6e1" stroke="#9ac6e1" stroke-width="1.51"/><path d="M408,129L323,286L614,303Z" fill="#9ec9e1" stroke="#9ec9e1" stroke-width="1.51"/><path d="M132,561L230,850L381,708Z" fill="#83b1d7" stroke="#83b1d7" stroke-width="1.51"/><path d="M1211,781L1484,779L1281,612Z" fill="#2d79b8" stroke="#2d79b8" stroke-width="1.51"/><path d="M1432,574L1707,488L1507,315Z" fill="#437cb7" stroke="#437cb7" stroke-width="1.51"/><path d="M1306,1010L1484,779L1211,781Z" fill="#216eb2" stroke="#216eb2" stroke-width="1.51"/><path d="M1306,1010L1211,781L1052,919Z" fill="#2573b6" stroke="#2573b6" stroke-width="1.51"/><path d="M381,708L459,948L668,833Z" fill="#679ecc" stroke="#679ecc" stroke-width="1.51"/><path d="M570,957L624,1246L762,1043Z" fill="#4e82bb" stroke="#4e82bb" stroke-width="1.51"/><path d="M624,1246L884,1138L762,1043Z" fill="#4178b3" stroke="#4178b3" stroke-width="1.51"/><path d="M762,1043L884,1138L1052,919Z" fill="#377ab7" stroke="#377ab7" stroke-width="1.51"/><path d="M1297,-139L1069,-125L1312,180Z" fill="#83a8d4" stroke="#83a8d4" stroke-width="1.51"/><path d="M1039,1234L1306,1010L1052,919Z" fill="#246baf" stroke="#246baf" stroke-width="1.51"/><path d="M828,-46L639,-134L794,51Z" fill="#9cc4e3" stroke="#9cc4e3" stroke-width="1.51"/><path d="M856,-334L639,-134L828,-46Z" fill="#a3c8e5" stroke="#a3c8e5" stroke-width="1.51"/><path d="M1306,1010L1483,957L1484,779Z" fill="#1964ab" stroke="#1964ab" stroke-width="1.51"/><path d="M1689,704L1707,488L1432,574Z" fill="#3570ac" stroke="#3570ac" stroke-width="1.51"/><path d="M1334,1227L1483,957L1306,1010Z" fill="#145ca5" stroke="#145ca5" stroke-width="1.51"/><path d="M639,-134L397,-21L654,99Z" fill="#abcee6" stroke="#abcee6" stroke-width="1.51"/><path d="M408,129L224,140L323,286Z" fill="#add0e6" stroke="#add0e6" stroke-width="1.51"/><path d="M1429,-92L1297,-139L1312,180Z" fill="#7fa0cf" stroke="#7fa0cf" stroke-width="1.51"/><path d="M1069,-125L856,-334L828,-46Z" fill="#9ac0e0" stroke="#9ac0e0" stroke-width="1.51"/><path d="M1429,-92L1312,180L1407,188Z" fill="#7599ca" stroke="#7599ca" stroke-width="1.51"/><path d="M884,1138L1039,1234L1052,919Z" fill="#2c71b1" stroke="#2c71b1" stroke-width="1.51"/><path d="M624,1246L1039,1234L884,1138Z" fill="#386ea8" stroke="#386ea8" stroke-width="1.51"/><path d="M381,708L230,850L459,948Z" fill="#74a3d0" stroke="#74a3d0" stroke-width="1.51"/><path d="M428,1172L624,1246L570,957Z" fill="#5884b9" stroke="#5884b9" stroke-width="1.51"/><path d="M132,561L381,708L368,485Z" fill="#88b8db" stroke="#88b8db" stroke-width="1.51"/><path d="M323,286L132,561L368,485Z" fill="#94c2e0" stroke="#94c2e0" stroke-width="1.51"/><path d="M397,-21L224,140L408,129Z" fill="#b4d3e9" stroke="#b4d3e9" stroke-width="1.51"/><path d="M100,282L132,561L323,286Z" fill="#a2c9e4" stroke="#a2c9e4" stroke-width="1.51"/><path d="M1691,72L1429,-92L1407,188Z" fill="#7592c5" stroke="#7592c5" stroke-width="1.51"/><path d="M1689,704L1432,574L1484,779Z" fill="#2b6faf" stroke="#2b6faf" stroke-width="1.51"/><path d="M1507,315L1691,72L1407,188Z" fill="#668cbf" stroke="#668cbf" stroke-width="1.51"/><path d="M428,1172L570,957L459,948Z" fill="#618fc2" stroke="#618fc2" stroke-width="1.51"/><path d="M1714,930L1689,704L1484,779Z" fill="#1f60a2" stroke="#1f60a2" stroke-width="1.51"/><path d="M210,1068L428,1172L459,948Z" fill="#6b90c2" stroke="#6b90c2" stroke-width="1.51"/><path d="M1689,704L1745,425L1707,488Z" fill="#386ca4" stroke="#386ca4" stroke-width="1.51"/><path d="M1707,488L1745,425L1507,315Z" fill="#4878ae" stroke="#4878ae" stroke-width="1.51"/><path d="M1013,-343L1069,-125L1340,-262Z" fill="#94b5db" stroke="#94b5db" stroke-width="1.51"/><path d="M1013,-343L856,-334L1069,-125Z" fill="#9cc0e1" stroke="#9cc0e1" stroke-width="1.51"/><path d="M639,-134L360,-284L397,-21Z" fill="#bad7ea" stroke="#bad7ea" stroke-width="1.51"/><path d="M1483,957L1714,930L1484,779Z" fill="#165ea5" stroke="#165ea5" stroke-width="1.51"/><path d="M1039,1234L1334,1227L1306,1010Z" fill="#1a5ea2" stroke="#1a5ea2" stroke-width="1.51"/><path d="M1416,1280L1334,1227L1039,1234Z" fill="#165597" stroke="#165597" stroke-width="1.51"/><path d="M224,140L100,282L323,286Z" fill="#b0d1e7" stroke="#b0d1e7" stroke-width="1.51"/><path d="M1340,-262L1069,-125L1297,-139Z" fill="#8cacd7" stroke="#8cacd7" stroke-width="1.51"/><path d="M1429,-92L1340,-262L1297,-139Z" fill="#87a4d1" stroke="#87a4d1" stroke-width="1.51"/><path d="M1471,-339L1340,-262L1429,-92Z" fill="#8aa3cf" stroke="#8aa3cf" stroke-width="1.51"/><path d="M397,-21L207,-80L224,140Z" fill="#c0d8ec" stroke="#c0d8ec" stroke-width="1.51"/><path d="M856,-334L672,-349L639,-134Z" fill="#accfe8" stroke="#accfe8" stroke-width="1.51"/><path d="M1013,-343L672,-349L856,-334Z" fill="#a9cbe5" stroke="#a9cbe5" stroke-width="1.51"/><path d="M1745,425L1691,72L1507,315Z" fill="#5a80b2" stroke="#5a80b2" stroke-width="1.51"/><path d="M33,910L210,1068L230,850Z" fill="#7ea0cf" stroke="#7ea0cf" stroke-width="1.51"/><path d="M230,850L210,1068L459,948Z" fill="#739acb" stroke="#739acb" stroke-width="1.51"/><path d="M1751,1265L1714,930L1483,957Z" fill="#0d4d93" stroke="#0d4d93" stroke-width="1.51"/><path d="M1689,704L1714,930L1745,425Z" fill="#28639e" stroke="#28639e" stroke-width="1.51"/><path d="M360,-284L207,-80L397,-21Z" fill="#c4dcee" stroke="#c4dcee" stroke-width="1.51"/><path d="M224,140L-120,184L100,282Z" fill="#bad7ea" stroke="#bad7ea" stroke-width="1.51"/><path d="M1334,1227L1416,1280L1483,957Z" fill="#10539b" stroke="#10539b" stroke-width="1.51"/><path d="M624,1246L1416,1280L1039,1234Z" fill="#27629d" stroke="#27629d" stroke-width="1.51"/><path d="M132,561L8,777L230,850Z" fill="#8ab2d9" stroke="#8ab2d9" stroke-width="1.51"/><path d="M-108,349L-14,588L132,561Z" fill="#9fc6e3" stroke="#9fc6e3" stroke-width="1.51"/><path d="M-108,349L132,561L100,282Z" fill="#a7cce6" stroke="#a7cce6" stroke-width="1.51"/><path d="M-14,588L8,777L132,561Z" fill="#93bbde" stroke="#93bbde" stroke-width="1.51"/><path d="M672,-349L360,-284L639,-134Z" fill="#b9d7eb" stroke="#b9d7eb" stroke-width="1.51"/><path d="M-48,1281L213,1157L210,1068Z" fill="#778ebe" stroke="#778ebe" stroke-width="1.51"/><path d="M210,1068L213,1157L428,1172Z" fill="#6e8dbf" stroke="#6e8dbf" stroke-width="1.51"/><path d="M428,1172L-48,1281L624,1246Z" fill="#6682b1" stroke="#6682b1" stroke-width="1.51"/><path d="M8,777L33,910L230,850Z" fill="#86a9d5" stroke="#86a9d5" stroke-width="1.51"/><path d="M1691,72L1737,-39L1429,-92Z" fill="#778ebd" stroke="#778ebd" stroke-width="1.51"/><path d="M1745,425L1737,-39L1691,72Z" fill="#6480ae" stroke="#6480ae" stroke-width="1.51"/><path d="M1616,-301L1471,-339L1429,-92Z" fill="#889dcb" stroke="#889dcb" stroke-width="1.51"/><path d="M1340,-262L1471,-339L1013,-343Z" fill="#93afd8" stroke="#93afd8" stroke-width="1.51"/><path d="M1013,-343L1471,-339L672,-349Z" fill="#9ebedf" stroke="#9ebedf" stroke-width="1.51"/><path d="M-120,184L-108,349L100,282Z" fill="#b9d6ea" stroke="#b9d6ea" stroke-width="1.51"/><path d="M-14,588L-213,559L8,777Z" fill="#98bfdf" stroke="#98bfdf" stroke-width="1.51"/><path d="M8,777L-236,934L33,910Z" fill="#8cacd6" stroke="#8cacd6" stroke-width="1.51"/><path d="M1737,-39L1616,-301L1429,-92Z" fill="#7f94c2" stroke="#7f94c2" stroke-width="1.51"/><path d="M-109,-37L-120,184L224,140Z" fill="#c7ddef" stroke="#c7ddef" stroke-width="1.51"/><path d="M360,-284L179,-287L207,-80Z" fill="#cee1f1" stroke="#cee1f1" stroke-width="1.51"/><path d="M672,-349L179,-287L360,-284Z" fill="#c8e0ef" stroke="#c8e0ef" stroke-width="1.51"/><path d="M-109,-37L224,140L207,-80Z" fill="#caddf0" stroke="#caddf0" stroke-width="1.51"/><path d="M-269,295L-213,559L-108,349Z" fill="#b2d2ea" stroke="#b2d2ea" stroke-width="1.51"/><path d="M-108,349L-213,559L-14,588Z" fill="#a5c9e5" stroke="#a5c9e5" stroke-width="1.51"/><path d="M1416,1280L1751,1265L1483,957Z" fill="#094a92" stroke="#094a92" stroke-width="1.51"/><path d="M1714,930L1751,1265L1745,425Z" fill="#175495" stroke="#175495" stroke-width="1.51"/><path d="M-120,184L-269,295L-108,349Z" fill="#bed9ec" stroke="#bed9ec" stroke-width="1.51"/><path d="M-81,-265L-109,-37L207,-80Z" fill="#d6e6f4" stroke="#d6e6f4" stroke-width="1.51"/><path d="M-277,61L-269,295L-120,184Z" fill="#c9e0ef" stroke="#c9e0ef" stroke-width="1.51"/><path d="M-279,828L-236,934L8,777Z" fill="#92b1d9" stroke="#92b1d9" stroke-width="1.51"/><path d="M33,910L-48,1281L210,1068Z" fill="#7d97c7" stroke="#7d97c7" stroke-width="1.51"/><path d="M-279,828L8,777L-213,559Z" fill="#98bbde" stroke="#98bbde" stroke-width="1.51"/><path d="M-269,295L-279,828L-213,559Z" fill="#a7cae5" stroke="#a7cae5" stroke-width="1.51"/><path d="M213,1157L-48,1281L428,1172Z" fill="#7289b8" stroke="#7289b8" stroke-width="1.51"/><path d="M624,1246L-48,1281L1416,1280Z" fill="#4672a5" stroke="#4672a5" stroke-width="1.51"/><path d="M-236,934L-48,1281L33,910Z" fill="#869ecc" stroke="#869ecc" stroke-width="1.51"/><path d="M-291,-264L-81,-265L179,-287Z" fill="#e2ecf8" stroke="#e2ecf8" stroke-width="1.51"/><path d="M179,-287L-81,-265L207,-80Z" fill="#d6e6f4" stroke="#d6e6f4" stroke-width="1.51"/><path d="M-109,-37L-277,61L-120,184Z" fill="#d1e3f3" stroke="#d1e3f3" stroke-width="1.51"/><path d="M-307,-140L-277,61L-109,-37Z" fill="#dce9f6" stroke="#dce9f6" stroke-width="1.51"/><path d="M-269,295L-307,-140L-279,828Z" fill="#bedaec" stroke="#bedaec" stroke-width="1.51"/><path d="M-81,-265L-307,-140L-109,-37Z" fill="#dfebf7" stroke="#dfebf7" stroke-width="1.51"/><path d="M-277,61L-307,-140L-269,295Z" fill="#d6e6f4" stroke="#d6e6f4" stroke-width="1.51"/><path d="M-81,-265L-291,-264L-307,-140Z" fill="#e6f0fa" stroke="#e6f0fa" stroke-width="1.51"/><path d="M672,-349L-291,-264L179,-287Z" fill="#d8e7f5" stroke="#d8e7f5" stroke-width="1.51"/><path d="M-236,934L-294,1262L-48,1281Z" fill="#8797c3" stroke="#8797c3" stroke-width="1.51"/><path d="M-279,828L-294,1262L-236,934Z" fill="#91a6d1" stroke="#91a6d1" stroke-width="1.51"/><path d="M-307,-140L-294,1262L-279,828Z" fill="#a2c4e2" stroke="#a2c4e2" stroke-width="1.51"/></svg>